<svg width="68" height="101" viewBox="0 0 68 101" fill="none" xmlns="http://www.w3.org/2000/svg">
<path d="M65.7 30.4C68.4 20.4 69.5 9.69999 61.2 4.39999C57.2 1.89999 53.4 0.700012 49.6 0.700012C45.4 0.700012 42 2.19999 39.2 3.39999C37.2 4.19999 35.5 5 34.1 5C32.7 5 31 4.29999 29 3.39999C26.2 2.19999 22.8 0.700012 18.6 0.700012C14.8 0.700012 11 1.89999 7 4.39999C-3.9 11.3 1.39999 27.6 5.29999 39.4C6.69999 43.6 7.80001 47.2 8.10001 49.5C8.40001 53.2 8.10001 57.7 7.70001 62.5C7.10001 69.5 6.60001 76.8 8.10001 82.6C10.8 92.3 19.3 99.5 19.7 99.8C20 100 20.3 100.1 20.7 100.1C21 100.1 21.2 100 21.5 99.9C22 99.6 22.3 99 22.2 98.3C22.2 98.1 18.9 80.6 23 69.4C26.4 60.1 32.1 55.2 34.3 55.2C36.4 55.2 42.2 60.1 45.6 69.4C49.7 80.6 46.4 98.1 46.4 98.3C46.3 98.9 46.6 99.6 47.1 99.9C47.6 100.2 48.3 100.2 48.8 99.8C49.2 99.5 57.7 92.4 60.4 82.6C62 76.8 61.4 69.6 60.8 62.5C60.4 57.7 60.1 53.2 60.4 49.5C60.6 47.2 61.8 43.5 63.2 39.4C64.1 36.6 65.1 33.6 65.9 30.5C65.7 30.5 65.8 30.5 65.7 30.4ZM40.4 6.10001C43.1 5.00001 46.1 3.70001 49.6 3.70001C52.9 3.70001 56.1 4.8 59.6 7C66 11 65.3 19.8 63.1 28.4C59.2 30.1 54 31.4 52.9 29.4C51.2 26.4 47.5 25.6 43.9 24.9C41.1 24.3 38.2 23.7 36.6 22.1C34.3 19.8 35.4 12.3 36.7 7.5C38 7.1 39.1 6.60001 40.4 6.10001ZM60.1 38.5C58.7 42.8 57.5 46.6 57.2 49.3C56.8 53.3 57.2 57.9 57.6 62.8C58.1 69.6 58.7 76.6 57.3 81.8C55.9 87.1 52.4 91.6 49.8 94.4C50.6 88.2 51.3 76.8 48.2 68.4C44.6 58.4 38.1 52.2 34.1 52.2C30.1 52.2 23.6 58.4 20 68.4C16.9 76.9 17.7 88.2 18.4 94.4C15.8 91.6 12.4 87 10.9 81.8C9.5 76.5 10 69.5 10.6 62.8C11 57.9 11.4 53.3 11 49.3C10.8 46.6 9.50001 42.9 8.10001 38.5C4.50001 27.6 -0.399992 12.6 8.60001 6.89999C12.1 4.69999 15.3 3.60001 18.6 3.60001C22.2 3.60001 25.2 4.9 27.8 6C29.8 6.8 31.7 7.59999 33.6 7.79999C32.6 11.9 31 20.6 34.6 24.1C36.8 26.3 40.1 27 43.4 27.7C46.5 28.4 49.4 29 50.4 30.8C51.4 32.7 53.4 33.3 55.6 33.3C57.8 33.3 60.3 32.6 62.3 31.9C61.5 34.3 60.8 36.5 60.1 38.5Z" fill="white"/>
</svg>
