<svg width="54" height="101" viewBox="0 0 54 101" fill="none" xmlns="http://www.w3.org/2000/svg">
<path d="M44.4 25.3H9.79999C6.49999 25.3 3.79999 28 3.79999 31.3V38.9H31.9V83.4H3.79999V91C3.79999 94.3 6.49999 97 9.79999 97H44.4C47.7 97 50.4 94.3 50.4 91V31.3C50.4 28 47.7 25.3 44.4 25.3Z" stroke="white" stroke-miterlimit="10"/>
<path d="M38.7 4H15.5C13.5 4 11.8 5.2 11.1 6.9H43C42.4 5.3 40.7 4 38.7 4Z" stroke="white" stroke-miterlimit="10"/>
<path d="M44.4 22.3H9.79999C4.79999 22.3 0.799988 26.3 0.799988 31.3V91C0.799988 96 4.89999 100 9.79999 100H44.4C49.4 100 53.4 95.9 53.4 91V31.3C53.4 26.4 49.4 22.3 44.4 22.3ZM50.4 91.1C50.4 94.4 47.7 97.1 44.4 97.1H9.79999C6.49999 97.1 3.79999 94.4 3.79999 91.1V83.5H31.9V39H3.79999V31.4C3.79999 28.1 6.49999 25.4 9.79999 25.4H44.4C47.7 25.4 50.4 28.1 50.4 31.4V91.1Z" stroke="white" stroke-miterlimit="10"/>
<path d="M46.4 8.4C46.2 4.3 42.8 1 38.7 1H15.5C11.4 1 7.99999 4.2 7.79999 8.4L7.70001 10H46.4V8.4ZM11.1 7C11.8 5.3 13.5 4.1 15.5 4.1H38.7C40.7 4.1 42.4 5.3 43.1 7H11.1Z" stroke="white" stroke-miterlimit="10"/>
<path d="M46.7 11.6H7.59998V20.8H46.7V11.6ZM9.5 19.7H8.70001V12.8H9.5V19.7ZM12.8 19.7H12V12.8H12.8V19.7ZM16.1 19.7H15.3V12.8H16.1V19.7ZM19.3 19.7H18.5V12.8H19.3V19.7ZM22.6 19.7H21.8V12.8H22.6V19.7ZM25.9 19.7H25V12.8H25.8V19.7H25.9ZM29.1 19.7H28.3V12.8H29.1V19.7ZM32.4 19.7H31.6V12.8H32.4V19.7ZM35.6 19.7H34.8V12.8H35.6V19.7ZM38.9 19.7H38.1V12.8H38.9V19.7ZM42.2 19.7H41.4V12.8H42.2V19.7ZM45.4 19.7H44.6V12.8H45.4V19.7Z" stroke="white" stroke-miterlimit="10"/>
<path d="M9.5 12.8H8.70001V19.7H9.5V12.8Z" stroke="white" stroke-miterlimit="10"/>
<path d="M12.8 12.8H12V19.7H12.8V12.8Z" stroke="white" stroke-miterlimit="10"/>
<path d="M16.1 12.8H15.3V19.7H16.1V12.8Z" stroke="white" stroke-miterlimit="10"/>
<path d="M19.3 12.8H18.5V19.7H19.3V12.8Z" stroke="white" stroke-miterlimit="10"/>
<path d="M22.6 12.8H21.8V19.7H22.6V12.8Z" stroke="white" stroke-miterlimit="10"/>
<path d="M25.8 12.8H25V19.7H25.8V12.8Z" stroke="white" stroke-miterlimit="10"/>
<path d="M29.1 12.8H28.3V19.7H29.1V12.8Z" stroke="white" stroke-miterlimit="10"/>
<path d="M32.4 12.8H31.6V19.7H32.4V12.8Z" stroke="white" stroke-miterlimit="10"/>
<path d="M35.6 12.8H34.8V19.7H35.6V12.8Z" stroke="white" stroke-miterlimit="10"/>
<path d="M38.9 12.8H38.1V19.7H38.9V12.8Z" stroke="white" stroke-miterlimit="10"/>
<path d="M42.2 12.8H41.4V19.7H42.2V12.8Z" stroke="white" stroke-miterlimit="10"/>
<path d="M45.4 12.8H44.6V19.7H45.4V12.8Z" stroke="white" stroke-miterlimit="10"/>
</svg>
