<svg width="114" height="116" viewBox="0 0 114 116" fill="none" xmlns="http://www.w3.org/2000/svg">
<path d="M42.4 41L110.1 108.7C111 109.6 111 111.1 110.1 112.1C109.6 112.6 109 112.8 108.4 112.8C107.8 112.8 107.2 112.6 106.7 112.1L39 44.4L42.4 41ZM42.4 36.8L34.8 44.4L104.6 114.2C105.7 115.3 107 115.8 108.4 115.8C109.8 115.8 111.2 115.3 112.2 114.2C114.3 112.1 114.3 108.7 112.2 106.6L42.4 36.8Z" fill="white"/>
<path d="M40.4216 34.952L32.7817 42.5854L33.9833 43.788L41.6232 36.1546L40.4216 34.952Z" fill="white"/>
<path d="M38.4809 32.9247L30.841 40.5581L32.0425 41.7607L39.6824 34.1273L38.4809 32.9247Z" fill="white"/>
<path d="M36.5383 31.0342L28.9038 38.673L30.1062 39.8748L37.7407 32.2359L36.5383 31.0342Z" fill="white"/>
<path d="M29.9 16.8C30.2 16.5 30.2 16.1 29.9 15.8C29.6 15.5 29.2 15.5 28.9 15.8L21.8 22.9L22.8 23.9L29.9 16.8Z" fill="white"/>
<path d="M35 21.9C35.3 21.6 35.3 21.2 35 20.9C34.7 20.6 34.3 20.6 34 20.9L26.9 28L27.9 29L35 21.9Z" fill="white"/>
<path d="M26.5 13.4C26.8 13.1 26.8 12.7 26.5 12.4C26.2 12.1 25.8 12.1 25.5 12.4L18.4 19.5L19.4 20.5L26.5 13.4Z" fill="white"/>
<path d="M19.6 6.50002C19.9 6.20002 19.9 5.80002 19.6 5.50002C19.3 5.20002 18.9 5.20002 18.6 5.50002L11.5 12.6L12.5 13.6L19.6 6.50002Z" fill="white"/>
<path d="M21.3 8.20004C21.6 7.90004 21.6 7.50004 21.3 7.20004C21 6.90004 20.6 6.90004 20.3 7.20004L13.2 14.3L14.2 15.3L21.3 8.20004Z" fill="white"/>
<path d="M36.7 23.6C37 23.3 37 22.9 36.7 22.6C36.4 22.3 36 22.3 35.7 22.6L28.6 29.7L29.6 30.7L36.7 23.6Z" fill="white"/>
<path d="M17.9 4.80001C18.2 4.50001 18.2 4.10001 17.9 3.80001C17.6 3.50001 17.2 3.50001 16.9 3.80001L9.8 10.9L10.8 11.9L17.9 4.80001Z" fill="white"/>
<path d="M33.3 20.2C33.6 19.9 33.6 19.5 33.3 19.2C33 18.9 32.6 18.9 32.3 19.2L25.2 26.3L26.2 27.3L33.3 20.2Z" fill="white"/>
<path d="M24.7 11.6C25 11.3 25 10.9 24.7 10.6C24.4 10.3 24 10.3 23.7 10.6L16.6 17.7L17.6 18.7L24.7 11.6Z" fill="white"/>
<path d="M28.2 15.1C28.5 14.8 28.5 14.4 28.2 14.1C27.9 13.8 27.5 13.8 27.2 14.1L20.1 21.2L21.1 22.2L28.2 15.1Z" fill="white"/>
<path d="M14.5 1.40005C14.8 1.10005 14.8 0.700049 14.5 0.400049C14.2 0.100049 13.8 0.100049 13.5 0.400049L6.4 7.50002L7.4 8.50002L14.5 1.40005Z" fill="white"/>
<path d="M31.6 18.5C31.9 18.2 31.9 17.8 31.6 17.5C31.3 17.2 30.9 17.2 30.6 17.5L23.5 24.6L24.5 25.6L31.6 18.5Z" fill="white"/>
<path d="M23 9.90005C23.3 9.60005 23.3 9.20005 23 8.90005C22.7 8.60005 22.3 8.60005 22 8.90005L14.9 16L15.9 17L23 9.90005Z" fill="white"/>
<path d="M16.2 3.1C16.5 2.8 16.5 2.4 16.2 2.1C15.9 1.8 15.5 1.8 15.2 2.1L8.1 9.20004L9.1 10.2L16.2 3.1Z" fill="white"/>
<path d="M38.5 25.4C38.8 25.1 38.8 24.7 38.5 24.4C38.2 24.1 37.8 24.1 37.5 24.4L30.4 31.5L31.4 32.5L38.5 25.4Z" fill="white"/>
<path d="M31.4 32.4L30.4 31.4L29.7 30.7L28.7 29.7L28 29L27 28L26.3 27.3L25.3 26.3L24.6 25.6L23.6 24.6L22.9 23.9L21.9 22.9L21.2 22.2L20.2 21.2L19.5 20.5L18.5 19.5L17.8 18.8L16.8 17.8L16.1 17.1L15.1 16.1L14.4 15.4L13.4 14.4L12.7 13.7L11.7 12.7L11 12L10 11L9.3 10.3L8.3 9.29996L7.6 8.59995L6.6 7.59995L5.9 6.9C4.7 5.7 2.8 5.7 1.6 6.9C0.399997 8.1 0.399997 9.99999 1.6 11.2L27.8 37.4L32.1 33.1L31.4 32.4Z" fill="white"/>
</svg>
