<?xml version="1.0" encoding="utf-8"?>
<!-- Generator: Adobe Illustrator 24.1.1, SVG Export Plug-In . SVG Version: 6.00 Build 0)  -->
<svg version="1.1" id="Capa_1" xmlns="http://www.w3.org/2000/svg" xmlns:xlink="http://www.w3.org/1999/xlink" x="0px" y="0px"
	 viewBox="0 0 70 70" style="enable-background:new 0 0 70 70;" xml:space="preserve">
<style type="text/css">
	.st0{fill:#FCFCFC;}
</style>
<g>
	<path class="st0" d="M62.2,31.3l-1.4-15.1C60.2,9.3,54.4,4,47.4,4H22.8C15.7,4,9.8,9.4,9.1,16.5L7.7,31.3c0,0.2,0,0.5,0,0.7v18.7
		c0,4.3,3.5,7.9,7.9,7.9h38.8c4.3,0,7.9-3.5,7.9-7.9V32.1C62.3,31.8,62.3,31.6,62.2,31.3z M16.9,16.4c0.2-1.9,1.8-3.4,3.7-3.4h28.8
		c1.9,0,3.5,1.5,3.7,3.4l1.1,12.1H15.9L16.9,16.4z M17.4,49.2c-2,0-3.6-1.6-3.6-3.6c0-2,1.6-3.6,3.6-3.6c2,0,3.6,1.6,3.6,3.6
		C21,47.6,19.4,49.2,17.4,49.2z M53.4,49.8c-2,0-3.6-1.6-3.6-3.6c0-2,1.6-3.6,3.6-3.6c2,0,3.6,1.6,3.6,3.6
		C57,48.2,55.4,49.8,53.4,49.8z"/>
	<path class="st0" d="M13.8,65.7c0,0.9,0.7,1.6,1.6,1.6h4c0.9,0,1.6-0.7,1.6-1.6v-5.6h-7.3V65.7z"/>
	<path class="st0" d="M49.8,65.7c0,0.9,0.7,1.6,1.6,1.6h4c0.9,0,1.6-0.7,1.6-1.6v-5.6h-7.3V65.7z"/>
</g>
</svg>
