<svg width="94" height="95" viewBox="0 0 94 95" fill="none" xmlns="http://www.w3.org/2000/svg">
<path d="M71.9 22.5V27.3H59.4V7.70001C59.4 6.90001 58.7 6.20001 57.9 6.20001H43.9C43.3 3.50001 40.9 1.40002 38 1.40002C34.6 1.40002 31.9 4.1 31.9 7.5C31.9 10.9 34.6 13.6 38 13.6C40.8 13.6 43.1 11.7 43.8 9.20001H56.3V41.5H59.3V30H71.8V34.8H75.3V44.1H75.9V34.8H80.2V44.1H80.8V34.8H85.1V44.1H85.7V34.8H90V44.1H90.6V34.8H93.1V22.5H71.9Z" stroke="white" strokeMiterlimit="10"/>
<path d="M85.5 74.7C85.1 74.7 84.7 74.6 84.3 74.5L58.7 66.2H35.3L2.29999 31.3C0.799989 29.7 0.800001 27.1999 2.5 25.5999C4.1 24.0999 6.60001 24.1 8.20001 25.8L38.9 58.2H60.1L86.9 66.9C89 67.6 90.2 69.8 89.5 71.9C88.7 73.7 87.2 74.7 85.5 74.7Z" stroke="white" strokeMiterlimit="10"/>
<path d="M83.9 62C83.4 62 82.8 61.9 82.3 61.6L62.6 52.7H41L25.8 34.8C24.4 33.1 24.6 30.6 26.3 29.2C28 27.8 30.5 28 31.9 29.7L44.7 44.7H64.2L85.5 54.3C87.5 55.2 88.4 57.6 87.5 59.6C86.9 61.1 85.4 62 83.9 62Z" stroke="white" strokeMiterlimit="10"/>
<path d="M28.5 22.2C28.5 25.7 25.6 28.6 22.1 28.6C18.6 28.6 15.7 25.7 15.7 22.2C15.7 18.7 18.6 15.8 22.1 15.8C25.7 15.8 28.5 18.7 28.5 22.2Z" stroke="white" strokeMiterlimit="10"/>
<path d="M58 92.1V68.3H35.5V92.1H13.1V94.4H80.3V92.1H58Z" stroke="white" strokeMiterlimit="10"/>
<path d="M42.2 7.59998C42.2 9.89998 40.3 11.9 37.9 11.9C35.6 11.9 33.6 9.99998 33.6 7.59998C33.6 5.29998 35.5 3.29999 37.9 3.29999C40.3 3.29999 42.2 5.19998 42.2 7.59998Z" stroke="white" strokeMiterlimit="10"/>
<path d="M76.6 26.6H74.9V32.3H76.6V26.6Z" stroke="white" strokeMiterlimit="10"/>
<path d="M81.4 26.6H79.7V32.3H81.4V26.6Z" stroke="white" strokeMiterlimit="10"/>
<path d="M86.3 26.6H84.6V32.3H86.3V26.6Z" stroke="white" strokeMiterlimit="10"/>
<path d="M91.1 26.6H89.4V32.3H91.1V26.6Z" stroke="white" strokeMiterlimit="10"/>
</svg>
