<svg width="68" height="101" viewBox="0 0 68 101" fill="none" xmlns="http://www.w3.org/2000/svg">
<path d="M61.1 41.6H7.00001C6.40001 41.6 5.80001 41.2 5.60001 40.6L5.20002 39.4C1.30002 27.5 -3.99999 11.3 7.00001 4.39999C11 1.89999 14.8 0.699997 18.6 0.699997C22.8 0.699997 26.2 2.19999 29 3.29999C31 4.09999 32.7 4.89999 34.1 4.89999C35.5 4.89999 37.2 4.19999 39.2 3.29999C42 2.09999 45.4 0.699997 49.6 0.699997C53.4 0.699997 57.2 1.89999 61.2 4.39999C72.1 11.3 66.8 27.6 63 39.4L62.6 40.6C62.4 41.2 61.8 41.6 61.1 41.6ZM8.10001 38.6H60V38.5C63.6 27.6 68.5 12.6 59.5 6.89999C56 4.69999 52.8 3.60001 49.5 3.60001C45.9 3.60001 42.9 4.9 40.3 6C38.1 6.9 36 7.79999 34 7.79999C32 7.79999 29.9 6.9 27.7 6C25 4.9 22 3.60001 18.5 3.60001C15.2 3.60001 12 4.69999 8.50001 6.89999C-0.499993 12.6 4.40001 27.5 8.00001 38.5L8.10001 38.6Z" fill="white"/>
<path d="M20.5 100.2C20.2 100.2 19.8 100.1 19.5 99.9C19.1 99.6 10.6 92.5 7.9 82.7C6.3 76.9 6.9 69.7 7.5 62.6C7.9 57.8 8.2 53.3 7.9 49.6C7.8 49 7.7 48.2 7.5 47.2C7.4 46.8 7.49999 46.3 7.79999 45.9C8.09999 45.5 8.5 45.3 9 45.3H59.2C59.7 45.3 60.1 45.5 60.4 45.9C60.7 46.3 60.8 46.7 60.7 47.2C60.5 48.2 60.3 49 60.3 49.6C60 53.3 60.3 57.8 60.7 62.6C61.3 69.6 61.8 76.9 60.3 82.7C57.7 92.4 49.1 99.6 48.7 99.9C48.2 100.3 47.5 100.4 47 100C46.5 99.7 46.2 99.1 46.3 98.4C46.3 98.2 49.6 80.7 45.5 69.5C42.1 60.2 36.4 55.3 34.2 55.3C32 55.3 26.3 60.2 22.9 69.5C18.8 80.7 22.1 98.2 22.1 98.4C22.2 99 21.9 99.6 21.4 100C21.1 100.1 20.8 100.2 20.5 100.2ZM10.8 48.3C10.9 48.7 10.9 49 10.9 49.3C11.3 53.3 10.9 57.9 10.5 62.8C10 69.6 9.39999 76.6 10.8 81.8C12.2 87.1 15.7 91.6 18.3 94.4C17.5 88.2 16.8 76.8 19.9 68.4C23.5 58.4 30 52.2 34 52.2C38 52.2 44.5 58.4 48.1 68.4C51.2 76.9 50.4 88.2 49.7 94.4C52.3 91.6 55.7 87 57.2 81.8C58.6 76.5 58.1 69.5 57.5 62.8C57.1 57.9 56.7 53.3 57.1 49.3C57.1 49 57.2 48.7 57.2 48.3H10.8Z" fill="white"/>
</svg>
