<svg width="112" height="97" viewBox="0 0 112 97" fill="none" xmlns="http://www.w3.org/2000/svg">
<path d="M85.2376 4.28996L72.5098 17.0178L86.5104 31.0184L99.2382 18.2906L85.2376 4.28996Z" stroke="white" stroke-miterlimit="10"/>
<path d="M89.4 32.7L95.3 35L103.1 27.2L100.9 21.2L89.4 32.7Z" stroke="white" stroke-miterlimit="10"/>
<path d="M102.2 32.4L106 28.6C106.4 28.2 106.6 27.6 106.3 27C106.3 27 102.8 17.7 102.5 17.4L86.2001 1.09999C85.6001 0.499994 84.7 0.499994 84.1 1.09999L69.3 16C68.9 16.4 68.8001 16.9 68.9001 17.4C68.5001 17.7 68.2 18 67.8 18.3L43.1 43C38.3 47.8 38.3 55.6 43.1 60.5C43.4 60.8 43.8 61.1 44.1 61.4C43.9 63.2 43.3 65.4 41.6 67.2C39.3 69.6 35.6001 70.6 30.4001 70.2C19.9001 69.3 11.2 71.8 6.10003 77.2C2.00003 81.5 0.300067 87.6 1.20007 94.7C1.20007 95 1.40003 95.3 1.60003 95.6C1.90003 95.9 2.40008 96.1 2.90008 96C3.70008 95.9 4.30007 95.1 4.20007 94.3C3.40007 88 4.80004 82.9 8.30004 79.2C12.8 74.5 20.6001 72.3 30.2001 73.1C36.3001 73.6 40.9 72.3 43.8 69.1C45.6 67.2 46.5001 64.9 46.9001 62.9C51.4001 64.9 56.9 64 60.6 60.3L85.3 35.6C85.7 35.2 86 34.9 86.3 34.5C88.5 35.4 95.2001 37.9 95.2001 37.9C95.8001 38.1 96.4 38 96.8 37.6L100.6 33.8L109.6 42.8L111.2 41.2L102.2 32.4ZM85.2001 4.29998L99.2001 18.3L86.5001 31L72.5001 17L85.2001 4.29998ZM95.3 35L89.3 32.7L100.8 21.2L103.1 27.2L95.3 35Z" stroke="white" stroke-miterlimit="10"/>
</svg>
