<svg width="97" height="107" viewBox="0 0 97 107" fill="none" xmlns="http://www.w3.org/2000/svg">
<path d="M46.2 42.8C37.4 42.8 30.1 49.6 29.3 58.1H30.8C31.6 50.3 38.3 44.3 46.2 44.3C54.1 44.3 60.8 50.4 61.6 58.1H63.1C62.2 49.6 54.9 42.8 46.2 42.8Z" stroke="white" strokeMiterlimit="10"/>
<path d="M10.6 58.3H17.6C17.8 55.2 18.4 52.2 19.6 49.4L10.6 58.3Z" stroke="white" strokeMiterlimit="10"/>
<path d="M46.2 52.2C42.6 52.2 39.5 54.8 38.7 58.2H53.7C52.9 54.7 49.8 52.2 46.2 52.2Z" stroke="white" strokeMiterlimit="10"/>
<path d="M46.2 47.3C39.9 47.3 34.6 52 33.8 58.1H35.7C36.5 53 40.9 49.1 46.2 49.1C51.5 49.1 55.9 53 56.7 58.1H58.6C57.7 52.1 52.5 47.3 46.2 47.3Z" stroke="white" strokeMiterlimit="10"/>
<path d="M46.2 38.3C34.9 38.3 25.6 47.1 24.8 58.1H26.3C27.2 47.9 35.8 39.8 46.2 39.8C56.6 39.8 65.2 47.9 66.1 58.1H67.6C66.7 47.1 57.4 38.3 46.2 38.3Z" stroke="white" strokeMiterlimit="10"/>
<path d="M56.9 7.70001C53.7 5.40001 49.7 4.20001 45.2 4.20001C35.8 4.20001 25.3 9.2 17 17.5C4.1 30.4 8.82149e-06 47.5 7.20001 57.5L56.9 7.70001Z" stroke="white" strokeMiterlimit="10"/>
<path d="M46.2 34.2C32.6 34.2 21.5 44.8 20.6 58.2H21.8C22.7 45.5 33.3 35.4 46.2 35.4C59.1 35.4 69.8 45.5 70.6 58.2H71.8C70.9 44.8 59.7 34.2 46.2 34.2Z" stroke="white" strokeMiterlimit="10"/>
<path d="M9.20001 90.9C9.20001 97.4 14.5 102.6 20.9 102.6H68.7C75.2 102.6 80.4 97.3 80.4 90.9V61.2H9.10001V90.9H9.20001Z" stroke="white" strokeMiterlimit="10"/>
<path d="M94.9 46C91.1 46.8 89.6 44.3 87.3 40C85.2 36.1 82.8 31.7 77.3 31.2C70.4 30.6 66.9 34.9 65.5 38.7C60.4 34 53.6 31.2 46.2 31.2C42.5 31.2 39 31.9 35.7 33.2L61.4 7.5L60.2 6.39999C56.3 2.99999 51.1 1.2 45.2 1.2C35.1 1.2 23.7 6.49999 14.9 15.3C0.29999 29.9 -3.6 49.8 6 60.6L6.29998 60.9V90.9C6.29998 99 12.9 105.6 21 105.6H68.8C76.9 105.6 83.5 99 83.5 90.9V58.2H74.8C74.5 51.7 71.9 45.7 67.9 41.1C68.4 39.1 70.3 33.5 77.1 34.1C80.9 34.4 82.8 37.8 84.7 41.4C86.7 45.1 88.9 49.2 93.6 49.2C94.2 49.2 94.9 49.1 95.5 49L94.9 46ZM46.2 49.2C40.9 49.2 36.5 53.1 35.7 58.2H33.8C34.6 52.1 39.9 47.4 46.2 47.4C52.5 47.4 57.8 52.1 58.6 58.2H56.7C55.9 53.1 51.4 49.2 46.2 49.2ZM53.6 58.2H38.6C39.4 54.8 42.4 52.2 46.1 52.2C49.8 52.2 52.9 54.7 53.6 58.2ZM61.6 58.2C60.8 50.4 54.1 44.4 46.2 44.4C38.3 44.4 31.6 50.5 30.8 58.2H29.3C30.1 49.6 37.4 42.9 46.2 42.9C55 42.9 62.3 49.7 63.1 58.2H61.6ZM66.1 58.2C65.2 48 56.6 39.9 46.2 39.9C35.8 39.9 27.2 48 26.3 58.2H24.8C25.7 47.1 35 38.4 46.2 38.4C57.5 38.4 66.8 47.2 67.6 58.2H66.1ZM10.6 58.3L19.5 49.4C18.4 52.2 17.7 55.2 17.5 58.3H10.6ZM17 17.4C25.3 9.09999 35.8 4.10001 45.2 4.10001C49.8 4.10001 53.8 5.30001 56.9 7.60001L7.20001 57.3C8.10623e-06 47.5 4.1 30.3 17 17.4ZM80.5 90.9C80.5 97.4 75.2 102.6 68.8 102.6H21C14.5 102.6 9.29998 97.3 9.29998 90.9V61.2H80.6V90.9H80.5ZM70.6 58.2C69.7 45.5 59.1 35.4 46.2 35.4C33.3 35.4 22.6 45.5 21.8 58.2H20.6C21.5 44.8 32.6 34.2 46.2 34.2C59.8 34.2 70.9 44.8 71.8 58.2H70.6Z" stroke="white" strokeMiterlimit="10"/>
</svg>
