<svg width="16" height="115" viewBox="0 0 16 115" fill="none" xmlns="http://www.w3.org/2000/svg">
<path d="M14.5 115H0.799988V63.7H14.5V115ZM3.89999 112H11.6V66.7H3.89999V112Z" fill="white"/>
<path d="M14.5 57.3H1V62.1H14.5V57.3Z" fill="white"/>
<path d="M14.5 51.1H1V55.9H14.5V51.1Z" fill="white"/>
<path d="M9.5 50H6.5V15.1L7.70001 14.8C7.90001 14.8 12.7 13.6 12.7 8.40002C12.7 7.20002 12.3 6.29998 11.6 5.59998C9.80001 3.79998 6.40001 3.5 5.10001 3.5V0.5C5.30001 0.5 10.7 0.5 13.7 3.5C15 4.8 15.7 6.5 15.7 8.5C15.7 13.7 12.1 16.4 9.5 17.4V50Z" fill="white"/>
</svg>
