<?xml version="1.0" encoding="utf-8"?>
<!-- Generator: Adobe Illustrator 24.1.1, SVG Export Plug-In . SVG Version: 6.00 Build 0)  -->
<svg version="1.1" id="Capa_1" xmlns="http://www.w3.org/2000/svg" xmlns:xlink="http://www.w3.org/1999/xlink" x="0px" y="0px"
	 viewBox="0 0 43.3 43.8" style="enable-background:new 0 0 43.3 43.8;" xml:space="preserve">
<style type="text/css">
	.st0{fill:#0981C5;}
</style>
<path class="st0" d="M5.2,18c3.6-2.4,7.9-2.1,11.2,0.7c4.2,3.5,5.9,7.3,10.3,10.9l0.6,5.4c0,0,0,0,0,0.1c-0.5-0.4-0.9-0.7-1.3-1
	C21.3,30.2,19.1,26,14.4,22c-2.1-1.7-4.3-2.3-6.7-1c-2.1,1.1-3.2,3-3.3,5.5c-0.1,3,1.8,5.7,4.6,6.4c2.9,0.7,5.6-0.9,6.7-3.8
	c0.1-0.2,0.2-0.4,0.3-0.8c1,0.8,2,1.6,3,2.4c-1.5,4.1-5.4,6.6-9.6,6.2c-0.4,0-0.9-0.1-1.3-0.2C11.8,40,16.4,42,21.6,42
	c0.1,0,0.3,0,0.4,0c-0.2-0.1-0.4-0.2-0.5-0.4c-0.1,0-0.1-0.1-0.2-0.2c-0.2-0.2-0.4-0.4-0.6-0.6c-0.1-0.1-0.2-0.2-0.2-0.3
	c-0.2-0.2-0.3-0.4-0.4-0.6c-0.1-0.2-0.3-0.4-0.4-0.6c-0.1-0.1-0.1-0.2-0.2-0.3c-0.2-0.3-0.3-0.7-0.4-1v0c-0.3-0.8-0.4-1.5-0.4-2.3
	c0-0.1,0-0.1,0-0.2c0-0.2,0-0.5,0-0.7c0.1-1.2,0.5-2.4,1.1-3.5l2,2.2c-0.2,0.6-0.4,1.2-0.4,1.8c0,0.1,0,0.2,0,0.3c0,0.1,0,0.2,0,0.2
	c0,0.4,0.1,0.8,0.3,1.2c0.4,1.2,1.1,2,2.1,2.6c0.1,0.1,0.2,0.1,0.3,0.2c0,0,0.1,0,0.1,0c0.4,0.2,0.8,0.3,1.3,0.3c0.1,0,0.2,0,0.3,0
	c0.1,0,0.2,0,0.3,0c0.4,0,0.9-0.1,1.3-0.3c0,0,0.1,0,0.1,0c0.1,0,0.2-0.1,0.3-0.2c1-0.5,1.7-1.4,2.1-2.6c0.1-0.4,0.2-0.8,0.3-1.2
	c0-0.1,0-0.2,0-0.2c0-0.1,0-0.2,0-0.3c0-0.7-0.1-1.3-0.4-1.8l2-2.2c0.6,1,1,2.2,1.1,3.5c0,0.2,0,0.5,0,0.7c0,0.1,0,0.2,0,0.2
	c0,0.8-0.2,1.5-0.4,2.3v0c-0.1,0.3-0.2,0.5-0.3,0.7c5.3-3.4,8.8-9.2,9-15.9c-0.8,1.5-1.9,2.8-3.3,3.8c-3.6,2.4-7.9,2.1-11.2-0.7
	c-4.2-3.5-5.9-7.3-10.3-10.9l-0.6-5.4c0,0,0,0,0-0.1c0.5,0.4,0.9,0.7,1.3,1c4.7,3.9,6.9,8.2,11.6,12.1c2.1,1.7,4.3,2.3,6.7,1
	c2.1-1.1,3.2-3,3.3-5.5c0.1-3-1.8-5.7-4.6-6.4c-2.9-0.7-5.6,0.9-6.7,3.8c-0.1,0.2-0.2,0.4-0.3,0.7c-1-0.8-2-1.6-3-2.4
	c1.5-4.1,5.4-6.6,9.6-6.2c0.4,0,0.9,0.1,1.3,0.2c-3.5-3.2-8.2-5.2-13.3-5.2c-0.1,0-0.3,0-0.4,0c0.2,0.1,0.4,0.2,0.5,0.4
	c0.1,0,0.1,0.1,0.2,0.2c0.2,0.2,0.4,0.4,0.6,0.6c0.1,0.1,0.2,0.2,0.2,0.3c0.2,0.2,0.3,0.4,0.4,0.6c0.1,0.2,0.3,0.4,0.4,0.6
	c0.1,0.1,0.1,0.2,0.2,0.3c0.2,0.3,0.3,0.7,0.4,1v0c0.3,0.8,0.4,1.5,0.4,2.3c0,0.1,0,0.1,0,0.2c0,0.2,0,0.5,0,0.7
	c-0.1,1.2-0.5,2.4-1.1,3.5l-2-2.2c0.2-0.6,0.4-1.2,0.4-1.8c0-0.1,0-0.2,0-0.3c0-0.1,0-0.2,0-0.2c0-0.4-0.1-0.8-0.3-1.2
	c-0.4-1.2-1.1-2-2.1-2.6C19.3,5,19.2,5,19.1,4.9c0,0-0.1,0-0.1,0c-0.4-0.2-0.8-0.3-1.3-0.3c-0.1,0-0.2,0-0.3,0c-0.1,0-0.2,0-0.3,0
	c-0.4,0-0.9,0.1-1.3,0.3c0,0-0.1,0-0.1,0c-0.1,0-0.2,0.1-0.3,0.2c-1,0.5-1.7,1.4-2.1,2.6C13.1,8,13,8.4,12.9,8.8c0,0.1,0,0.2,0,0.2
	c0,0.1,0,0.2,0,0.3c0,0.7,0.1,1.3,0.4,1.8l-2,2.2c-0.6-1-1-2.2-1.1-3.5c0-0.2,0-0.5,0-0.7c0-0.1,0-0.2,0-0.2c0-0.8,0.2-1.5,0.4-2.3
	v0c0.1-0.3,0.2-0.5,0.3-0.7c-5.3,3.4-8.8,9.2-9,15.9C2.7,20.3,3.8,19,5.2,18z"/>
</svg>
