<?xml version="1.0" encoding="utf-8"?>
<!-- Generator: Adobe Illustrator 24.1.1, SVG Export Plug-In . SVG Version: 6.00 Build 0)  -->
<svg version="1.1" id="Layer_1" xmlns="http://www.w3.org/2000/svg" xmlns:xlink="http://www.w3.org/1999/xlink" x="0px" y="0px"
	 viewBox="0 0 680 340" style="enable-background:new 0 0 680 340;" xml:space="preserve">
<style type="text/css">
	.st0{fill:#0081C6;}
	.st1{fill:#1B3891;}
</style>
<g>
	<path class="st0" d="M564.9,12c27.6-0.7,55.1,9.5,75.6,28c-11.4-2.6-23.7-1.2-34.2,4.1c-11.6,5.8-21,16.1-25.3,28.3
		c5.6,4.2,10.9,8.6,16.4,12.8c3-7.7,6.9-15.4,14-20.1c11.9-8.5,29.5-6.5,39.6,3.8c13.2,12.5,13.8,35.9,1.1,49
		c-6.3,6.3-15.1,10.4-24,10.3c-7.5-0.1-14.5-3.5-20.3-8c-26.8-21-43.9-52-72-71.5c1,9.8,2.2,19.5,3.3,29.2c15.4,12.3,27,28.4,40,43
		c9.2,9.9,19,20,31.9,24.9c12.8,5.1,27.7,4.3,40.1-1.9c10.4-4.9,18.7-13.5,24-23.6c-0.5,18.1-5.8,35.9-15.3,51.3
		c-8.5,13.9-20.3,25.6-34,34.4c6-12.6,5.1-28-2-40c-3.6,3.8-7.1,7.7-10.8,11.5c2.5,6.8,2.5,14.5-0.5,21.1
		c-3.2,8-11.1,13.5-19.5,14.4c-8.5,1-17.3-3-22.2-9.9c-5.1-7.4-6.2-17.2-2.9-25.5c-3.6-3.8-7.2-7.7-10.8-11.5
		c-5.8,9.8-7.7,22-4.6,33c2.5,9.8,9,18.2,17.3,23.8c-27.6,0.7-55.2-9.5-75.6-28.1c13.6,3.2,28.5,0.4,40-7.5
		c8.9-6,15.7-14.8,19.6-24.8c-5.5-4.3-11-8.7-16.5-13c-2.9,7.6-6.8,15.3-13.8,20c-11.8,8.6-29.4,6.7-39.6-3.5
		c-12.9-12.1-14-34.3-2.7-47.7c7.5-8.5,19.5-13.6,30.8-11.1c7.2,1.6,13.5,5.9,18.9,10.7c13.2,11.2,24.1,24.6,35.4,37.6
		c9.8,11.2,20.4,21.9,32.5,30.6c-1.1-9.7-2.2-19.5-3.3-29.2c-15.2-12.1-26.6-27.8-39.4-42.3c-9.5-10.3-19.7-20.9-33.1-25.8
		c-12.9-4.9-27.8-4-40,2.4c-10.2,4.9-18.2,13.4-23.5,23.3c0.7-24.6,10.4-48.7,27-66.9c6.5-7.3,14.1-13.5,22.3-18.8
		c-5.9,12.6-5.1,28,2.1,40c3.6-3.8,7.2-7.7,10.8-11.5c-3.4-8.6-2.1-18.8,3.4-26.2c6.7-8.9,19.8-12.1,29.7-6.9
		c12,5.5,16.7,21.2,12,33c3.5,3.9,7.2,7.7,10.8,11.6c5.4-9.2,7.5-20.4,5.1-30.9C580.5,27.3,573.8,17.9,564.9,12z"/>
	<g>
		<path class="st0" d="M4.2,153.5c9.3,0,18.5-0.1,27.8,0.1c8.9,0.2,18.4,3.3,23.7,10.8c6.5,9.4,7.7,23.4,0.2,32.6
			c-6,7.3-15.8,10.3-24.9,10.7c-9,0.2-18,0-27,0.1c0-0.6,0-1.9,0-2.5c2.2-0.6,5.3-0.6,6.1-3.3c1.3-4.2,0.7-8.7,0.8-13
			c-0.2-9.8,0.5-19.7-0.4-29.5C10.2,155.5,3.5,157.7,4.2,153.5z M19.6,157.5c0,12.1,0,24.3,0,36.4c0,3.8,1,8.9,5.4,9.6
			c9.1,1.1,19.9-3,23.4-12.1c3.3-8.6,3.4-19.6-3.4-26.5C38.5,158.3,28.5,157.1,19.6,157.5z"/>
	</g>
	<g>
		<path class="st0" d="M64.8,153.5c7.7,0,15.4-0.1,23.2,0.1c4.7,0.2,9.8,0.8,13.6,3.8c4.2,3.4,4.4,9.8,2.3,14.4
			c-2.2,4.4-7.2,6.1-11.6,7.3c8.5,5,12.2,14.5,17.1,22.6c1.3,2.7,4.4,3,7,3.6c0,0.6,0,1.9,0,2.5c-4.7,0-9.5,0-14.2,0
			c-3.8-7.8-7.5-15.9-13-22.7c-2-2.7-5.4-3.9-8.6-4.2c0.1,6.9-0.3,13.8,0.2,20.6c0.3,3.4,4.4,3.2,6.9,3.8c0,0.6-0.1,1.7-0.2,2.3
			c-7.6,0.4-15.3,0-23,0.2c0-0.6-0.1-1.9-0.1-2.5c3.1-0.3,7.3-1.3,7.1-5.3c0.3-11,0-21.9,0.1-32.9c-0.1-2.9,0.3-6-0.9-8.7
			C69.2,155.7,64.1,157.4,64.8,153.5z M80.3,157.1c0,6.6,0,13.2,0,19.8c4-0.2,8.4-0.2,11.9-2.7c4.3-3,5.2-10.1,1.3-13.7
			C90,157.2,84.8,157.2,80.3,157.1z"/>
	</g>
	<path class="st0" d="M126.4,195.6c4.6-2.3,10.3,2.5,8.7,7.4c-0.9,4.5-7,6.4-10.3,3.2C121.3,203.4,122.2,197.2,126.4,195.6z"/>
</g>
<g>
	<path class="st1" d="M359.8,112.8c2.1-2,4.2-4.5,7.2-5.1c2.6-0.7,5.6,1.5,5.5,4.3c-0.1,2.8-2.7,4.4-4.8,5.7
		c-4.9,2.9-9.9,5.5-14.7,8.5c-2.4,1.8-5.4,1.1-8.2,1.2C349.9,122.6,355,117.8,359.8,112.8z"/>
	<path class="st1" d="M295.1,132.5c3.5,0.9,4.9-3.9,8.4-3.1c0,6.1,0,12.2,0,18.3c-1.3,0-2.6,0-3.8,0c-3.6-10.9-18.6-14-27.2-7.2
		c-5.4,4.1-6.6,13.4-1.3,18.1c8.5,7.5,20.6,9.2,28.6,17.4c6.6,6.4,7.9,17.3,3.4,25.3c-4.1,7.8-12.8,12.1-21.4,12.9
		c-7.1,0.8-14.1-0.9-21-2.6c-2.1-0.7-3.4,1.3-4.6,2.6c-0.7,0-2.1,0-2.9,0.1c0-6.4,0-12.8,0-19.2c1.3,0,2.6,0,3.8,0.1
		c3.2,6.5,9.1,12.2,16.6,12.7c7,1.1,15.6-1.8,18-9c2-4.9,0.2-10.8-4-13.8c-8.8-6.4-20-9.4-27.6-17.6c-8.6-9.2-5.6-25.8,5-32.3
		C274.1,129.5,285.3,130.4,295.1,132.5z"/>
	<path class="st1" d="M443.1,132.4c2.5,0.7,4.6-0.9,6-2.8c0.7,0,2.2-0.1,2.9-0.1c0,6.1,0,12.1,0,18.2c-1.3,0-2.5,0-3.8,0
		c-1.8-4.2-4.9-8-9.4-9.6c-6.7-2.4-15.4-1.3-20,4.7c-3.5,4.7-3.6,12.2,1.2,16.1c8.6,7.3,20.7,9.1,28.6,17.4c6.5,6.6,7.7,17.5,3,25.4
		c-3.6,6.5-10.5,10.6-17.6,12.1c-8.1,1.8-16.3,0.2-24.2-1.9c-2.2-0.9-3.8,1.1-5.1,2.5c-0.7,0-2.1,0.1-2.8,0.1c0-6.4,0-12.8,0-19.2
		c1.3,0,2.5,0,3.8,0c2.6,5.1,6.6,9.8,12.2,11.8c6.3,2.1,13.9,1.6,19.1-2.9c5.3-4.6,5.7-13.8,0.1-18.3c-9.1-7.2-21.3-10-29-19
		c-5.2-6-5.5-15-2.5-22.1c2.8-6.7,9.3-11.4,16.3-12.9C429,130.1,436.2,131,443.1,132.4z"/>
	<path class="st1" d="M144.5,132.4c10.8,0,21.7,0,32.5,0c0,1.2,0,2.4,0,3.6c-2.6,0.5-5.6,0.5-7.5,2.5c-1.8,2.7-1.9,6.2-2.1,9.3
		c-0.2,20.4,0.1,40.8-0.1,61.1c-0.1,6.5-1.1,13.6-5.8,18.5c-6.2,6.6-16.9,8.1-24.9,4c-4.6-2.2-7.9-6.2-11-10.1c1.1-1,2.3-2,3.4-2.9
		c3.1,3.7,7,7.3,12,8c4.8,0.8,10.1-1.9,11.7-6.6c1.4-4.1,1.2-8.5,1.4-12.7c0.1-19.4,0-38.7,0-58.1c-0.2-3.5-0.1-7.2-1.9-10.3
		c-1.8-2.5-5.2-2.2-7.9-2.8C144.5,134.7,144.5,133.6,144.5,132.4z"/>
	<path class="st1" d="M182.7,132.3c19.7,0,39.3,0,59,0c0,5.4,0,10.9,0,16.3c-1.2,0-2.5,0-3.7,0c-0.6-3.5-1.4-8.3-5.8-8.9
		c-9.2-2-18.7-0.8-28-1.1c0,10.3-0.1,20.7,0,31c6.2-0.2,12.4,0,18.6-0.2c2.3-0.2,4.8-0.2,6.9-1.4c2.2-1.6,2.2-4.6,2.8-7
		c1.2,0,2.4,0,3.7-0.1c0,7.7,0,15.4,0,23.1c-1.3,0-2.7,0-4,0.1c-0.4-2.4-0.4-5.2-2.4-6.8c-2.2-1.7-5.1-1.8-7.8-1.9
		c-6-0.1-11.9,0-17.9,0c0,6.6-0.1,13.2,0.1,19.8c0.2,3.7,1,8.1,4.4,10.3c3.7,2.3,8.3,1.9,12.4,2.1c5.6-0.1,11.4,0.3,16.7-1.7
		c4.2-1.7,5.8-6.4,6.9-10.4c0.9,0.2,2.6,0.6,3.5,0.8c-1,5.7-2.1,11.4-3.2,17.1c-20.9,0-41.9,0-62.8,0c0-1.2,0-2.5,0-3.7
		c2.6-0.8,5.9-1.3,7.3-3.9c1.7-3.2,1.7-7,1.8-10.5c-0.1-16,0-31.9,0-47.9c-0.2-2.6,0-5.5-1.4-7.8c-1.6-2.3-4.6-2.6-7.1-3.4
		C182.7,134.7,182.7,133.5,182.7,132.3z"/>
	<path class="st1" d="M311.7,132.4c10.9,0,21.8,0,32.6,0c0,0.9,0,2.8,0,3.7c-2.8,0.5-6.4,0.4-8.2,3c-1.7,2.6-1.4,5.9-1.5,8.8
		c0,12,0,24,0,36c0.1,6.8,1.4,14.1,6.2,19.3c5.4,6.1,14.8,7.2,22.1,4.3c6-2.4,9.9-8.3,11.3-14.4c1.6-6.6,0.9-13.4,1.1-20.2
		c0-9,0.1-18,0-27c-0.2-2.7-0.2-6-2.4-7.9c-2-1.6-4.8-1.6-7.3-2c0-1.2,0-2.5,0-3.7c10.9,0.1,21.8-0.1,32.7,0.1
		c0,0.9-0.1,2.8-0.2,3.7c-2.9,0.7-6.5,0.8-8.1,3.7c-1.3,2.5-1.3,5.3-1.5,8c0,12.3,0.1,24.6,0,36.9c0.1,11.4-6.8,22.8-17.6,27
		c-10.5,4.3-22.8,4.2-33.1-0.5c-9.7-4.4-16.1-14.7-16.3-25.3c-0.2-12.7,0-25.3-0.1-38c-0.2-2.9-0.1-6.1-1.8-8.6
		c-1.9-2.4-5.1-2.6-7.9-3.3C311.7,135.2,311.7,133.4,311.7,132.4z"/>
	<path class="st1" d="M190.1,231.1c4.5-5.7,11.6-9.8,19-8.7c7.5,0.6,15.9,5.9,22.7,0.3c0.7,0.6,1.3,1.2,2,1.8
		c-3.5,4.3-8.1,8.3-13.9,8.9c-7.5,0.9-14.5-3.4-22-3.2C195.1,230.1,192.6,233.6,190.1,231.1z"/>
	<path class="st1" d="M645.4,236.3c1,0,2.1,0,3.1,0c0,6.5,0,12.9,0,19.4c-1.4,0-2.7,0-4.1,0c-4-11.9-20.8-15-29.9-7.1
		c-5.2,4.6-6.3,14-0.7,18.7c8.9,7.8,21.5,9.7,30.2,17.8c4.4,4,7.1,9.9,7.2,16c0.3,8.6-4.7,16.9-12.1,21.1c-8.1,4.8-18,5.4-27.1,3.7
		c-3.4-0.5-6.6-1.8-10-2.3c-2-0.2-3,1.7-4.3,2.9c-1,0-2,0-3.1,0c0-6.8,0-13.6,0-20.4c1.4,0,2.8,0,4.1,0c3.3,6.7,9.4,12.7,17.1,13.6
		c7.7,1.3,17.4-1.4,20.2-9.5c2.2-5.3,0.2-11.6-4.5-14.9c-9.5-6.7-21.3-9.9-29.5-18.5c-9.2-9.6-6.3-27,4.7-34.1
		c9.4-6.4,21.6-5.6,32.3-3.4C641.7,240,643.9,238.3,645.4,236.3z"/>
	<g>
		<path class="st1" d="M117.3,238.4c1-0.1,2.1-0.3,3.1-0.4c10.6,23.8,21.4,47.6,32,71.4c1.4,3.1,2.9,6.3,5.4,8.6
			c2.1,1.9,4.9,2.5,7.5,3.3c0,1.3,0,2.6,0,4c-11,0-21.9,0-32.9,0c0-1.3,0-2.6,0-3.9c2.1-0.7,4.9-0.6,6.3-2.6
			c1.2-2.5-0.1-5.3-0.8-7.8c-2.1-5.2-4.7-10.2-7-15.4c-10.5,0-21,0-31.5,0c-2.6,6.8-6.1,13.4-8,20.5c-0.8,3.8,3.8,4.8,6.5,5.4
			c0,1.3,0,2.5,0,3.8c-8.5,0-16.9,0-25.4,0c0-1,0-2.9-0.1-3.9c3.1-0.8,6.6-1.5,8.5-4.3c3.4-4.9,5.7-10.4,8.1-15.8
			C98.6,280.4,107.9,259.4,117.3,238.4z M114.8,260.4c-4.1,9.7-8.3,19.4-12.4,29.1c8.6,0,17.1,0,25.7,0
			C123.7,279.7,119.2,270,114.8,260.4z"/>
	</g>
	<g>
		<path class="st1" d="M532.5,238.7c13.2-2.3,27.5,0.2,38.4,8.3c9.3,6.7,15.4,17.5,16.5,28.9c1.2,12-1.6,24.7-9.3,34.2
			c-6.2,7.8-15.4,13.1-25.2,14.9c-12.6,2.5-26.4,1.3-37.5-5.6c-10.5-6.2-17.8-17.4-19.6-29.4c-2.5-15.5,3.4-32.5,15.8-42.3
			C517.8,243.1,525.1,240,532.5,238.7z M535.5,244.7c-8.8,1.3-16.7,7.4-20.3,15.6c-4.5,10.3-4.7,22-2.5,32.9
			c1.7,8,5.1,16.1,11.7,21.2c7.3,5.9,17.6,6.6,26.4,4.1c7.3-2,13.1-7.7,16-14.5c3.7-8.5,4.7-17.9,4.4-27
			c-0.4-9.2-3.4-18.8-10.3-25.2C554.4,245.4,544.5,243,535.5,244.7z"/>
	</g>
	<g>
		<path class="st1" d="M4.2,239.3c13.3,0.1,26.6-0.1,39.9,0.1c8.6,0.2,18.2,4.3,21.7,12.7c3.9,9.5-1.3,21.1-10.5,25.2
			c6.7,2.2,13.4,6.1,16.7,12.6c3.9,7.4,4.4,17.2-1,24c-6.7,8.3-17.8,11.1-28,11.3c-13,0.2-26,0-39,0.1c0-1.3,0-2.7,0-4
			c3.1-0.5,6.8-0.8,8.7-3.6c2-3.1,1.9-7.1,2-10.7c0-17.7,0-35.3,0-53c-0.2-2.8,0-6.3-2.3-8.3c-2.4-1.7-5.4-1.8-8.2-2.4
			C4.2,241.9,4.2,240.6,4.2,239.3z M28.9,245.2c0,9.9,0,19.9,0,29.8c6.2-0.1,12.8-0.3,18.1-3.9c8.4-5.6,6.4-20.6-3-24.1
			C39.2,245,34,245.3,28.9,245.2z M28.8,281.4c0.2,9.2-0.2,18.4,0.2,27.6c0,4.1,2.4,8.2,6.5,9.3c7.1,1.9,15.5,0.2,20.3-5.7
			c6.5-7.7,5.9-21.7-3.3-27.1C45.3,281.5,36.8,281.2,28.8,281.4z"/>
	</g>
	<path class="st1" d="M162.7,239.3c8.1-0.1,16.1,0,24.2,0c17.5,20.4,35,40.9,52.5,61.4c0-14.6,0-29.1,0-43.7c-0.2-3.3,0-6.8-1.4-10
		c-1.5-3-5.2-3.1-8-3.9c0-1.3,0-2.6,0-3.9c8.6,0,17.2,0,25.8,0c0,1.3,0,2.6,0,3.9c-2.6,0.5-5.6,0.8-7.4,3.1c-2.4,3-2.3,7-2.4,10.7
		c0,23.7,0,47.4,0,71.1c-0.6,0-1.8-0.1-2.5-0.2c-20.2-24-40.6-47.8-60.8-71.7c0,16-0.1,32-0.1,47.9c0.1,4.3,0.1,8.8,1.7,12.8
		c1.4,3.1,5.2,3.5,8,4.5c0,1.3,0,2.6,0,4c-8.6,0-17.3,0-25.9,0c0-1.3,0-2.6,0-3.9c3-0.6,6.9-1.1,7.9-4.6c1.3-4.2,1.5-8.6,1.6-12.9
		c0-18.6,0-37.3,0-55.9c-3.7-3.1-8.3-4.8-13.1-5C162.7,242.1,162.7,240.3,162.7,239.3z"/>
	<path class="st1" d="M260.1,239.3c11.7,0,23.4,0,35.1,0c0,1.3,0,2.7,0,4c-3,0.5-6.7,0.4-8.8,3.1c-1.7,2.5-1.5,5.7-1.7,8.6
		c0,13,0,25.9,0,38.9c0.1,6.9,1.3,14.2,5.7,19.7c6.5,8.3,19.6,9.5,28.2,3.9c7-4.7,9.6-13.6,9.8-21.6c0.1-12.3,0-24.6,0.1-37
		c-0.2-4,0.4-8.4-1.4-12.1c-1.8-3.2-5.9-3.1-9.1-3.6c0-1.3,0-2.7,0-4c11.7,0,23.4,0,35.1,0c0,1.3,0,2.7,0.1,4
		c-2.9,0.7-6.4,0.8-8.4,3.4c-1.9,2.7-1.8,6.2-2,9.3c-0.1,13,0,26.1-0.1,39.1c0,7.8-2.8,15.7-8.2,21.4c-5.7,6.3-14.1,9.5-22.4,10.4
		c-9,0.9-18.4-0.2-26.3-4.7c-7.5-4.2-12.9-11.7-14.6-20.1c-1-4.6-0.7-9.4-0.8-14.1c0-10.3,0-20.7,0-31c-0.2-3.3-0.1-6.8-1.6-9.8
		c-1.8-3-5.7-3.2-8.7-3.9C260.1,241.9,260.1,240.6,260.1,239.3z"/>
	<path class="st1" d="M358.2,239.2c21.2,0,42.3,0,63.5,0c0,5.8,0,11.6,0,17.4c-1,0-3,0-3.9,0c-0.7-3.5-1.2-8.1-5.3-9.2
		c-10.1-2.7-20.7-1.1-31-1.5c0,11,0,22,0,33c6.8-0.1,13.6,0,20.4-0.2c2.4-0.2,5-0.2,7.1-1.6c2.3-1.8,2.3-4.9,2.9-7.4
		c1.3,0,2.6,0,3.9,0c0,8.1,0,16.3,0,24.5c-1.4,0-2.8,0.1-4.2,0.1c-0.1-3.7-1.5-8.1-5.7-8.7c-8-1.3-16.2-0.5-24.2-0.6
		c-0.9,4.2-0.1,8.8-0.4,13.2c0.1,5.7-0.8,12,2.7,17c3.3,4.1,9.2,3.9,14,4c6.5-0.1,13.3,0.6,19.5-1.8c4.5-1.8,6.1-6.8,7.4-11.1
		c0.9,0.2,2.8,0.6,3.8,0.8c-1.1,6.1-2.3,12.1-3.4,18.2c-22.5,0-45.1,0-67.6,0c0-1.3,0-2.6,0-4c2.7-0.8,6.1-1.3,7.7-3.9
		c1.8-3.1,2-6.9,2.1-10.4c0-17.3,0-34.6,0-51.9c-0.1-2.7,0-5.7-1.3-8.2c-1.6-2.7-5-3.1-7.8-3.9C358.3,241.7,358.2,240.4,358.2,239.2
		z"/>
	<path class="st1" d="M433.7,239.3c11.8-0.1,23.6,0,35.4,0c0,1.3,0,2.6,0,3.9c-3.2,0.5-7.3,0.6-9.2,3.8c-1.8,3.4-1.6,7.4-1.7,11.1
		c0,16,0,32,0,48c0.1,3.6,0.2,7.9,3.3,10.4c3.5,2.6,8.2,2.4,12.4,2.6c4.5-0.1,9.4,0,13.4-2.5c4.4-3,5.6-8.4,7.4-13
		c0.9,0.2,2.8,0.7,3.7,0.9c-1,7-2.1,13.9-3.2,20.9c-20.7,0-41.3,0-62,0c0-1.4,0-2.7-0.1-4c3.5-0.9,8.4-1.1,9.7-5.1
		c1.4-5.6,0.9-11.4,1-17.1c0-14.4,0-28.7,0-43.1c-0.2-3.1,0-6.5-1.8-9.3c-2.1-2.5-5.6-2.8-8.5-3.6
		C433.8,242.2,433.7,240.3,433.7,239.3z"/>
</g>
</svg>
