<svg width="345" height="345" viewBox="0 0 345 345" fill="none" xmlns="http://www.w3.org/2000/svg">
<path d="M31.6744 135.521C62.6028 114.918 99.545 117.493 127.896 141.53C163.979 171.575 178.584 204.196 216.386 235.1L221.54 281.457C221.54 281.457 221.54 281.457 221.54 282.315C217.245 278.881 213.808 276.306 210.372 273.731C169.993 240.251 151.092 204.196 110.714 169.858C92.6721 155.265 73.7714 150.114 53.1524 161.274C35.1109 170.717 25.6605 187.027 24.8014 208.489C23.9423 234.242 40.2656 257.42 64.321 263.429C89.2356 269.438 112.432 255.703 121.882 230.808C122.741 229.091 123.6 227.374 124.46 223.941C133.051 230.808 141.642 237.676 150.233 244.543C137.346 279.74 103.841 301.201 67.7575 297.767C64.321 297.767 60.0254 296.909 56.5889 296.05C88.3765 324.379 127.896 341.548 172.57 341.548C173.43 341.548 175.148 341.548 176.007 341.548C174.289 340.69 172.57 339.831 171.711 338.114C170.852 338.114 170.852 337.256 169.993 336.397C168.275 334.68 166.557 332.963 164.838 331.247C163.979 330.388 163.12 329.53 163.12 328.671C161.402 326.954 160.543 325.237 159.684 323.521C158.824 321.804 157.106 320.087 156.247 318.37C155.388 317.511 155.388 316.653 154.529 315.795C152.811 313.219 151.952 309.785 151.092 307.21C148.515 300.342 147.656 294.333 147.656 287.466C147.656 286.607 147.656 286.607 147.656 285.749C147.656 284.032 147.656 281.457 147.656 279.74C148.515 269.438 151.952 259.137 157.106 249.694L174.289 268.58C172.57 273.731 170.852 278.881 170.852 284.032C170.852 284.89 170.852 285.749 170.852 286.607C170.852 287.466 170.852 288.324 170.852 288.324C170.852 291.758 171.711 295.192 173.43 298.626C176.866 308.927 182.88 315.795 191.471 320.945C192.33 321.804 193.189 321.804 194.049 322.662H194.908C198.344 324.379 201.781 325.237 206.076 325.237C206.935 325.237 207.794 325.237 208.654 325.237C209.513 325.237 210.372 325.237 211.231 325.237C214.667 325.237 218.963 324.379 222.4 322.662H223.259C224.118 322.662 224.977 321.804 225.836 320.945C234.427 316.653 240.441 308.927 243.878 298.626C244.737 295.192 245.596 291.758 246.455 288.324C246.455 287.466 246.455 286.607 246.455 286.607C246.455 285.749 246.455 284.89 246.455 284.032C246.455 278.023 245.596 272.872 243.018 268.58L260.201 249.694C265.356 258.279 268.792 268.58 269.651 279.74C269.651 281.457 269.651 284.032 269.651 285.749C269.651 286.607 269.651 287.466 269.651 287.466C269.651 294.333 267.933 300.342 266.215 307.21C265.356 309.785 264.497 311.502 263.637 313.219C309.171 284.032 339.24 234.242 340.958 176.726C334.085 189.603 324.635 200.763 312.607 209.347C281.679 229.95 244.737 227.374 216.386 203.338C180.303 173.292 165.697 140.671 127.896 109.767L122.741 63.411C122.741 63.411 122.741 63.411 122.741 62.5525C127.037 65.9863 130.473 68.5616 133.91 71.137C174.289 104.616 193.189 141.53 233.568 175.009C251.61 189.603 270.51 194.753 291.129 183.594C309.171 174.151 318.621 157.84 319.48 136.379C320.339 110.626 304.016 87.4475 279.961 81.4384C255.046 75.4292 231.85 89.1644 222.4 114.059C221.54 115.776 220.681 117.493 219.822 120.068C211.231 113.201 202.64 106.333 194.049 99.4658C206.935 64.2694 240.441 42.8082 276.524 46.242C279.961 46.242 284.256 47.1005 287.693 47.9589C257.624 20.4886 217.245 3.31963 173.43 3.31963C172.57 3.31963 170.852 3.31963 169.993 3.31963C171.711 4.17807 173.43 5.03652 174.289 6.75342C175.148 6.75342 175.148 7.61186 176.007 8.47031C177.725 10.1872 179.443 11.9041 181.162 13.621C182.021 14.4794 182.88 15.3379 182.88 16.1963C184.598 17.9132 185.457 19.6301 186.316 21.347C187.176 23.0639 188.894 24.7808 189.753 26.4977C190.612 27.3562 190.612 28.2146 191.471 29.0731C193.189 31.6484 194.049 35.0822 194.908 37.6575C197.485 44.5251 198.344 50.5342 198.344 57.4018C198.344 58.2603 198.344 58.2603 198.344 59.1187C198.344 60.8356 198.344 63.411 198.344 65.1279C197.485 75.4292 194.049 85.7306 188.894 95.1735L171.711 76.2877C173.43 71.137 175.148 65.9863 175.148 60.8356C175.148 59.9772 175.148 59.1187 175.148 58.2603C175.148 57.4018 175.148 56.5434 175.148 56.5434C175.148 53.1096 174.289 49.6758 172.57 46.242C169.134 35.9406 163.12 29.0731 154.529 23.9224C152.811 23.9224 151.952 23.9224 151.092 23.0639H150.233C146.797 21.347 143.36 20.4886 139.065 20.4886C138.206 20.4886 137.346 20.4886 136.487 20.4886C135.628 20.4886 134.769 20.4886 133.91 20.4886C130.473 20.4886 126.178 21.347 122.741 23.0639H121.882C121.023 23.0639 120.164 23.9224 119.305 24.7808C110.714 29.0731 104.7 36.7991 101.263 47.1005C99.545 49.6758 98.6859 53.1096 97.8268 56.5434C97.8268 57.4018 97.8268 58.2603 97.8268 58.2603C97.8268 59.1187 97.8268 59.9772 97.8268 60.8356C97.8268 66.8447 98.6859 71.9954 101.263 76.2877L84.0808 95.1735C78.9261 86.589 75.4896 76.2877 74.6305 65.1279C74.6305 63.411 74.6305 60.8356 74.6305 59.1187C74.6305 58.2603 74.6305 57.4018 74.6305 57.4018C74.6305 50.5342 76.3487 44.5251 78.067 37.6575C78.9261 35.0822 79.7852 33.3653 80.6443 31.6484C35.1109 60.8356 5.04158 110.626 3.32333 168.142C10.1963 155.265 19.6467 144.105 31.6744 135.521Z" fill="#0981C5"/>
</svg>
