<svg width="20" height="117" viewBox="0 0 20 117" fill="none" xmlns="http://www.w3.org/2000/svg">
<path d="M16.5 117H2.79999V65.7H16.5V117ZM5.89999 114H13.6V68.7H5.89999V114Z" fill="white"/>
<path d="M16.5 59.3H3V64.1H16.5V59.3Z" fill="white"/>
<path d="M16.5 53.1H3V57.9H16.5V53.1Z" fill="white"/>
<path d="M19.3 10.5C19.3 5.2 15 0.900024 9.70001 0.900024C4.40001 0.900024 0.100006 5.2 0.100006 10.5C0.100006 15.4 3.69999 19.4 8.39999 20V51H11V20C15.7 19.4 19.3 15.4 19.3 10.5Z" fill="white"/>
<path d="M9.70001 17.6C13.6212 17.6 16.8 14.4212 16.8 10.5C16.8 6.57878 13.6212 3.40002 9.70001 3.40002C5.77879 3.40002 2.60001 6.57878 2.60001 10.5C2.60001 14.4212 5.77879 17.6 9.70001 17.6Z" fill="white"/>
</svg>
