<svg height="512" viewBox="0 0 64 64" width="512" xmlns="http://www.w3.org/2000/svg"><g id="Filled_outline" data-name="Filled outline"><path d="m28 22-3.163-4.325a10.04 10.04 0 1 0 -3.037 3.459z" fill="#fcf05a"/><path d="m49 27h-16l-2-10c-.28-1.817 1.161-3 3-3h13z" fill="#cfdfe8"/><path d="m49 47h-16l-2 10h16z" fill="#cfdfe8"/><path d="m33 27h16v20h-16z" fill="#7d8d9c"/><path d="m31 57h16v4h-16z" fill="#aabece"/><path d="m47 14h6v47h-6v-4l2-10v-20z" fill="#5a6470"/><path d="m53 14h5v47h-5z" fill="#394d5c"/><path d="m33 27h16v4h-16z" fill="#394d5c"/><g fill="#f4f4e6"><path d="m36 34h2v2h-2z"/><path d="m40 34h2v2h-2z"/><path d="m44 34h2v2h-2z"/><path d="m36 38h2v2h-2z"/><path d="m40 38h2v2h-2z"/><path d="m44 38h2v2h-2z"/><path d="m36 42h2v2h-2z"/><path d="m40 42h2v2h-2z"/><path d="m44 42h2v2h-2z"/></g><path d="m51 3v7l-1 2v2h6v-2l-1-2v-7z" fill="#aabece"/><path d="m16 9a3.439 3.439 0 0 0 -5 0 3.521 3.521 0 0 0 0 5l5.006 4.085 4.994-4.085a3.521 3.521 0 0 0 0-5 3.473 3.473 0 0 0 -5 0z" fill="#e33e5c"/><path d="m32 27.1v19.8l-1.98 9.9a1.664 1.664 0 0 0 -.02.2v4a1 1 0 0 0 1 1h27a1 1 0 0 0 1-1v-47a1 1 0 0 0 -1-1h-1v-1a1 1 0 0 0 -.1-.447l-.9-1.789v-6.764a1 1 0 0 0 -1-1h-4a1 1 0 0 0 -1 1v6.764l-.9 1.789a1 1 0 0 0 -.1.447v1h-15a4.211 4.211 0 0 0 -3.233 1.355 3.443 3.443 0 0 0 -.747 2.845zm14 32.9h-14v-2h14zm.18-4h-13.96l1.6-8h13.96zm-12.18-10v-14h14v14zm23-31v45h-3v-45zm-6-2.764.9-1.789a1 1 0 0 0 .1-.447v-6h2v6a1 1 0 0 0 .1.447l.9 1.789v.764h-4zm1 2.764v45h-4v-2.9l1.98-9.9a.925.925 0 0 0 .02-.2v-20a.964.964 0 0 0 -.012-.152l-1.822-11.848zm-4 15h-14v-2h14zm-15.715-14.342a2.232 2.232 0 0 1 1.715-.658h12.142l1.692 11h-14.014l-1.832-9.152a1.416 1.416 0 0 1 .297-1.19z"/><path d="m35 54h9a1 1 0 0 0 .949-.684l1-3-1.9-.632-.77 2.316h-6.892l.562-1.684-1.9-.632-1 3a1 1 0 0 0 .951 1.316z"/><path d="m36 34h2v2h-2z"/><path d="m40 34h2v2h-2z"/><path d="m44 34h2v2h-2z"/><path d="m36 38h2v2h-2z"/><path d="m40 38h2v2h-2z"/><path d="m44 38h2v2h-2z"/><path d="m36 42h2v2h-2z"/><path d="m40 42h2v2h-2z"/><path d="m44 42h2v2h-2z"/><path d="m35.969 19.5h8.062v2h-8.062z" transform="matrix(.496 -.868 .868 .496 2.355 45.059)"/><path d="m41.764 20h4.472v2h-4.472z" transform="matrix(.447 -.894 .894 .447 5.54 50.963)"/><path d="m34.197 18.5h3.606v2h-3.606z" transform="matrix(.555 -.832 .832 .555 -.194 38.637)"/><path d="m15.374 18.864a1 1 0 0 0 1.266 0l5.034-4.12a4.369 4.369 0 0 0 1.368-3.24 4.365 4.365 0 0 0 -1.368-3.238 4.418 4.418 0 0 0 -5.663-.547 4.384 4.384 0 0 0 -5.685.547 4.365 4.365 0 0 0 -1.368 3.234 4.387 4.387 0 0 0 1.41 3.276zm-3.7-9.121a2.916 2.916 0 0 1 1.877-.823 2.5 2.5 0 0 1 1.755.8 1 1 0 0 0 1.374.013 2.5 2.5 0 0 1 3.646.01 2.364 2.364 0 0 1 .716 1.76 2.359 2.359 0 0 1 -.675 1.727l-4.362 3.57-4.331-3.533a2.367 2.367 0 0 1 -.716-1.762 2.364 2.364 0 0 1 .716-1.762z"/><path d="m16 24a10.909 10.909 0 0 0 6.049-1.822l5.812.812a.985.985 0 0 0 1-.477 1 1 0 0 0 -.051-1.1l-2.81-3.84a11 11 0 1 0 -10 6.427zm0-20a9.011 9.011 0 0 1 9 9 8.9 8.9 0 0 1 -1.046 4.207 1 1 0 0 0 .076 1.058l1.77 2.418-3.857-.539a.992.992 0 0 0 -.72.176 9 9 0 1 1 -5.223-16.32z"/></g></svg>