<svg width="110" height="85" viewBox="0 0 110 85" fill="none" xmlns="http://www.w3.org/2000/svg">
<path d="M54.5 6.10001C52.6 4.20001 50 3.10001 47.3 3.10001C44.6 3.10001 42 4.20001 40.1 6.10001L26.1 20L40.5 34.4L54.4 20.5C58.5 16.5 58.5 10.1 54.5 6.10001Z" stroke="white" strokeMiterlimit="10"/>
<path d="M103.7 64.4L89.8 50.5L75.4 64.9L89.3 78.8C91.2 80.7 93.8 81.8 96.5 81.8C99.2 81.8 101.8 80.7 103.7 78.8C107.7 74.9 107.7 68.4 103.7 64.4Z" stroke="white" strokeMiterlimit="10"/>
<path d="M71.9 29.1C69.5 26.7 66.3 25.4 62.9 25.4C59.5 25.4 56.3 26.7 53.9 29.1C51.5 31.5 50.2 34.7 50.2 38.1C50.2 41.5 51.5 44.7 53.9 47.1L69.6 62.8L87.5 44.9L71.9 29.1Z" stroke="white" strokeMiterlimit="10"/>
<path d="M105.4 62.7L89.7 47L71.8 64.9L87.5 80.6C89.9 83 93.1 84.3 96.5 84.3C99.9 84.3 103.1 83 105.5 80.6C110.4 75.6 110.4 67.6 105.4 62.7ZM103.7 78.8C101.8 80.7 99.2 81.8 96.5 81.8C93.8 81.8 91.2 80.7 89.3 78.8L75.4 64.9L89.8 50.5L103.7 64.4C107.7 68.4 107.7 74.9 103.7 78.8Z" stroke="white" strokeMiterlimit="10"/>
<path d="M20.5 22.2L4.79999 37.9C2.39999 40.3 1.10001 43.5 1.10001 46.9C1.10001 50.3 2.39999 53.5 4.79999 55.9C7.19999 58.3 10.4 59.6 13.8 59.6C17.2 59.6 20.4 58.3 22.8 55.9L38.5 40.2L20.5 22.2Z" stroke="white" strokeMiterlimit="10"/>
<path d="M56.2 4.30001C53.8 1.90001 50.6 0.600006 47.2 0.600006C43.8 0.600006 40.6 1.90001 38.2 4.30001L22.6 20L40.5 37.9L56.2 22.2C61.2 17.3 61.2 9.30001 56.2 4.30001ZM40.6 34.4L26.1 20L40 6.10001C41.9 4.20001 44.5 3.10001 47.2 3.10001C49.9 3.10001 52.5 4.20001 54.4 6.10001C58.4 10.1 58.4 16.6 54.4 20.5L40.6 34.4Z" stroke="white" strokeMiterlimit="10"/>
</svg>
