<svg width="69" height="97" viewBox="0 0 69 97" fill="none" xmlns="http://www.w3.org/2000/svg">
<path d="M59.5999 7.5C56.0999 5.3 52.8999 4.20001 49.5999 4.20001C45.9999 4.20001 43 5.49998 40.4 6.59998C38.2 7.49998 36.0999 8.40002 34.0999 8.40002C32.0999 8.40002 30 7.49998 27.8 6.59998C25.1 5.49998 22.0999 4.20001 18.5999 4.20001C15.2999 4.20001 12.0999 5.3 8.59995 7.5C-0.400054 13.2 4.49995 28.1 8.09995 39.1C8.39995 40.1 8.79995 41.1 9.09995 42.1H59.2C59.5 41.1 59.8 40.1 60.2 39.1C63.7 28.1 68.5999 13.1 59.5999 7.5Z" stroke="white" stroke-miterlimit="10"/>
<path d="M61.2 4.90002C57.2 2.40002 53.4 1.20001 49.6 1.20001C45.4 1.20001 42 2.69999 39.2 3.79999C37.2 4.59999 35.5 5.40002 34.1 5.40002C32.7 5.40002 31 4.69999 29 3.79999C26.2 2.59999 22.8 1.20001 18.6 1.20001C14.8 1.20001 11 2.40002 7 4.90002C-3.9 11.8 1.40001 28.1 5.20001 39.9C5.40001 40.6 5.70002 41.3 5.90002 41.9H5.59997V61.7H29.2V66H12.6V71H29.2V74.5H16.6V79.5H29.2V83H21.6V88H29.2V91.5H26.9V96.5H41.2V91.5H39V88H46.6V83H39V79.5H51.6V74.5H39V71H55.6V66H39V61.7H62.6V42H62.3C62.5 41.3 62.7 40.7 63 39.9C66.8 28.1 72.1 11.8 61.2 4.90002ZM60.1 39C59.8 40 59.4 41 59.1 42H9C8.7 41 8.4 40 8 39C4.4 28.1 -0.500005 13.1 8.5 7.40002C12 5.20002 15.2 4.09998 18.5 4.09998C22.1 4.09998 25.1 5.4 27.7 6.5C29.9 7.4 32 8.29999 34 8.29999C36 8.29999 38.1 7.4 40.3 6.5C43 5.4 46 4.09998 49.5 4.09998C52.8 4.09998 56 5.20002 59.5 7.40002C68.6 13.1 63.7 28.1 60.1 39Z" stroke="white" stroke-miterlimit="10"/>
</svg>
