<svg width="113" height="113" viewBox="0 0 113 113" fill="none" xmlns="http://www.w3.org/2000/svg">
<path d="M49.7001 23.1L22.7001 50L30.1 57.5L39.7001 47.9L41.8 50L32.3 59.6L36.9001 64.2L46.4001 54.6L48.5001 56.7L39.0001 66.3L43.6 70.9L53.1 61.3L55.3 63.5L45.7001 73L50.3 77.6L59.8 68.1L62.0001 70.2L52.4001 79.7L66.6 93.9L93.5001 66.9L49.7001 23.1Z" stroke="white" strokeMiterlimit="10"/>
<path d="M97.8 66.9L49.7 18.8L35.1 33.4L0.500031 0.799988L33.1 35.4L18.5 50L66.6 98.1L76.4001 88.3L84.9001 96.8L75.4001 106.3L81.1 112L111.9 81.2L106.2 75.5L96.7 85L88.2 76.5L97.8 66.9ZM52.4001 79.7L61.9001 70.2L59.8 68.1L50.3 77.6L45.7 73L55.2 63.5L53.1 61.4L43.6 70.9L39 66.3L48.5 56.8L46.4001 54.7L36.9001 64.2L32.3 59.6L41.8 50.1L39.7 48L30.2 57.5L22.8 50.1L49.7 23.2L93.5 67L66.6 93.9L52.4001 79.7Z" stroke="white" strokeMiterlimit="10"/>
</svg>
