<?xml version="1.0" encoding="utf-8"?>
<!-- Generator: Adobe Illustrator 24.1.1, SVG Export Plug-In . SVG Version: 6.00 Build 0)  -->
<svg version="1.1" id="Capa_1" xmlns="http://www.w3.org/2000/svg" xmlns:xlink="http://www.w3.org/1999/xlink" x="0px" y="0px"
	 viewBox="0 0 70 70" style="enable-background:new 0 0 70 70;" xml:space="preserve">
<style type="text/css">
	.st0{fill:#FCFCFC;}
</style>
<g>
	<path class="st0" d="M29.3,14.3h11.6c0.8,0,1.5-0.7,1.5-1.5V9.5c0-0.8-0.7-1.5-1.5-1.5H29.3c-0.8,0-1.5,0.7-1.5,1.5v3.3
		C27.8,13.7,28.4,14.3,29.3,14.3z"/>
	<path class="st0" d="M12.3,59.9c0,0.8,0.7,1.5,1.5,1.5h3.6c0.8,0,1.5-0.7,1.5-1.5v-5.1h-6.6V59.9z"/>
	<path class="st0" d="M51.3,59.9c0,0.8,0.7,1.5,1.5,1.5h3.6c0.8,0,1.5-0.7,1.5-1.5v-5.1h-6.6V59.9z"/>
	<path class="st0" d="M62.3,36.2h-0.1c-1.2,0-2.3-0.7-2.8-1.9l-4.3-10.5c-1.4-4.5-5.6-7.5-10.3-7.5h-19c-4.6,0-8.7,2.9-10.2,7.2
		c0,0,0,0.1-0.1,0.1l-4.9,10.7c-0.5,1.1-1.5,1.8-2.7,1.8c-1.6,0-3,1.3-3,3L4.9,49.8c0,1.6,1.3,3,3,3l54.4,0c1.6,0,3-1.3,3-3
		l0.1-10.7C65.3,37.6,64,36.2,62.3,36.2z M20.6,24.7c0.6-1.5,2.1-2.4,3.7-2.4l21.9,0c1.7,0,3.2,1,3.8,2.6l2.8,7.3l-35.4-0.1
		L20.6,24.7z M15.6,45.5c-1.8,0-3.2-1.5-3.2-3.2c0-1.8,1.5-3.2,3.2-3.2s3.2,1.5,3.2,3.2C18.9,44.1,17.4,45.5,15.6,45.5z M54.6,45.5
		c-1.8,0-3.2-1.5-3.2-3.2c0-1.8,1.5-3.2,3.2-3.2c1.8,0,3.2,1.5,3.2,3.2C57.8,44.1,56.4,45.5,54.6,45.5z"/>
</g>
</svg>
