<svg width="104" height="90" viewBox="0 0 104 90" fill="none" xmlns="http://www.w3.org/2000/svg">
<path d="M38 50.4C40.2 43.8 43.1 34.8 37.9 31.5C35.8 30.2 33.9 29.6 32 29.6C29.9 29.6 28.1 30.4 26.5 31.1C25.1 31.7 23.8 32.3 22.4 32.3C21.1 32.3 19.7 31.7 18.3 31.1C16.7 30.4 14.9 29.6 12.8 29.6C10.9 29.6 9 30.2 6.9 31.5C1.7 34.8 4.6 43.8 6.8 50.4C7.7 53.1 8.5 55.5 8.6 57.2C8.8 59.7 8.6 62.6 8.4 65.6C8.1 69.7 7.7 74 8.6 77.2C9.3 79.7 10.7 81.9 12.1 83.6C11.7 79.6 11.6 73.6 13.3 68.9C15.6 62.4 19.8 58.6 22.5 58.6C25.2 58.6 29.3 62.5 31.7 68.9C33.4 73.6 33.2 79.6 32.9 83.6C34.3 81.9 35.7 79.7 36.4 77.2C37.3 74 36.9 69.7 36.6 65.6C36.4 62.5 36.1 59.7 36.4 57.2C36.4 55.5 37.2 53.2 38 50.4Z" stroke="white" strokeMiterlimit="10"/>
<path d="M46.4 57.3C53.5 57.3 60.1 54.5 65.1 49.5C75.4 39.2 75.4 22.4 65.1 12C60.1 7 53.4 4.20001 46.4 4.20001C39.3 4.20001 32.7 7 27.7 12C23.3 16.4 20.6 22.3 20.1 28.6C21 29 21.9 29.3 22.5 29.3C23.3 29.3 24.3 28.9 25.5 28.4C27.3 27.7 29.5 26.7 32.1 26.7C34.6 26.7 37 27.5 39.5 29.1C46.6 33.6 43.2 43.8 40.8 51.3C40.2 53.2 39.6 55 39.3 56.3C41.6 56.9 44 57.3 46.4 57.3Z" stroke="white" strokeMiterlimit="10"/>
<path d="M67.3 9.89999C61.7 4.29999 54.3 1.3 46.4 1.3C38.5 1.3 31.1 4.39999 25.5 9.89999C20.8 14.6 17.8 20.8 17.1 27.5C15.8 27.1 14.4 26.7 12.8 26.7C10.3 26.7 7.9 27.5 5.4 29.1C-1.7 33.6 1.7 43.8 4.1 51.3C4.9 53.8 5.70001 56 5.80001 57.4C6.00001 59.7 5.8 62.4 5.6 65.4C5.3 69.8 4.9 74.3 5.9 78C7.6 84.2 13 88.7 13.2 88.9C13.5 89.1 13.8 89.2 14.1 89.2C14.4 89.2 14.6 89.1 14.8 89C15.3 88.7 15.6 88.1 15.5 87.5C15.5 87.4 13.5 76.7 16 69.9C18 64.3 21.5 61.5 22.5 61.5C23.5 61.5 27 64.4 29 69.9C31.5 76.7 29.5 87.4 29.5 87.5C29.4 88.1 29.7 88.7 30.2 89C30.7 89.3 31.4 89.2 31.8 88.9C32 88.7 37.4 84.2 39.1 78C40.1 74.3 39.7 69.8 39.4 65.4C39.2 63.2 39.1 61.2 39.1 59.3C41.5 59.9 44 60.3 46.5 60.3C54.4 60.3 61.8 57.2 67.4 51.7C78.8 40.1 78.8 21.4 67.3 9.89999ZM36.5 65.6C36.8 69.7 37.2 74 36.3 77.2C35.6 79.7 34.2 81.9 32.8 83.6C33.2 79.6 33.3 73.6 31.6 68.9C29.3 62.4 25.1 58.6 22.4 58.6C19.7 58.6 15.6 62.5 13.2 68.9C11.5 73.6 11.7 79.6 12 83.6C10.6 81.9 9.2 79.7 8.5 77.2C7.6 74 8.00001 69.7 8.30001 65.6C8.50001 62.5 8.8 59.7 8.5 57.2C8.3 55.5 7.6 53.1 6.7 50.4C4.5 43.8 1.60001 34.8 6.80001 31.5C8.90001 30.2 10.8 29.6 12.7 29.6C14.8 29.6 16.6 30.4 18.2 31.1C19.6 31.7 20.9 32.3 22.3 32.3C23.6 32.3 25 31.7 26.4 31.1C28 30.4 29.8 29.6 31.9 29.6C33.8 29.6 35.7 30.2 37.8 31.5C43 34.8 40.1 43.8 37.9 50.4C37 53.1 36.2 55.5 36.1 57.2C36 59.7 36.2 62.6 36.5 65.6ZM39.5 29.1C37 27.5 34.5 26.7 32.1 26.7C29.4 26.7 27.2 27.6 25.5 28.4C24.3 28.9 23.3 29.3 22.5 29.3C21.9 29.3 21 29 20.1 28.6C20.6 22.3 23.3 16.5 27.7 12C32.7 7 39.4 4.20001 46.4 4.20001C53.5 4.20001 60.1 7 65.1 12C75.4 22.3 75.4 39.1 65.1 49.5C60.1 54.5 53.4 57.3 46.4 57.3C44 57.3 41.6 57 39.3 56.3C39.6 55 40.2 53.2 40.8 51.3C43.2 43.8 46.6 33.6 39.5 29.1Z" stroke="white" strokeMiterlimit="10"/>
<path d="M74.6764 55.3319L70.9288 59.0795L99.4249 87.5756L103.173 83.828L74.6764 55.3319Z" stroke="white" strokeMiterlimit="10"/>
<path d="M72.074 52.7154L68.3264 56.4631L70.1648 58.3015L73.9125 54.5539L72.074 52.7154Z" stroke="white" strokeMiterlimit="10"/>
<path d="M69.7517 50.4333L66.0035 54.181L67.842 56.0197L71.5901 52.2721L69.7517 50.4333Z" stroke="white" strokeMiterlimit="10"/>
</svg>
