<svg width="124" height="124" viewBox="0 0 124 124" fill="none" xmlns="http://www.w3.org/2000/svg">
<path d="M99.7 15.5C98.3 14.1 96.3 13.3 94.3 13.3C92.3 13.3 90.3 14.1 88.9 15.5L6.5 88.4C3.6 91.3 3.6 96.2 6.6 99.2L25.4 118C26.8 119.4 28.8 120.2 30.8 120.2C32.8 120.2 34.8 119.4 36.2 118L44.2 108.9L29.7 93.5L95.9 27.3L106.9 38L108.9 35.7C110.4 34.2 111.2 32.3 111.2 30.2C111.2 28.2 110.4 26.2 109 24.8L99.7 15.5ZM5.8 95.5L4.7 94.4L14.2 84.9L15.3 86L5.8 95.5ZM7.1 96.8L16.6 87.3L17.7 88.4L8.2 97.9L7.1 96.8ZM9.5 99.2L19 89.7L20.1 90.8L10.6 100.3L9.5 99.2ZM12 101.7L21.5 92.2L22.6 93.3L13.1 102.8L12 101.7ZM14.4 104.1L23.9 94.6L25 95.7L15.5 105.2L14.4 104.1ZM16.9 106.5L26.4 97L27.5 98.1L18 107.6L16.9 106.5ZM39.7 110.4L30.2 119.9L29.1 118.8L38.6 109.3L39.7 110.4ZM37.3 108L27.8 117.5L26.7 116.4L36.2 106.9L37.3 108ZM34.8 105.5L25.3 115L24.2 113.9L33.7 104.4L34.8 105.5ZM32.4 103.1L22.9 112.6L21.8 111.5L31.3 102L32.4 103.1ZM29.9 100.7L20.4 110.2L19.3 109.1L28.8 99.6L29.9 100.7Z" stroke="white" strokeMiterlimit="10"/>
<path d="M101.9 13.3C99.9 11.3 97.2 10.2 94.4 10.2C91.6 10.2 88.9 11.3 86.9 13.3L4.5 86.2C0.299999 90.4 0.299999 97.1 4.5 101.3L23.3 120.1C25.3 122.1 28 123.2 30.8 123.2C33.6 123.2 36.3 122.1 38.4 120L111.2 37.7C113.2 35.7 114.3 33 114.3 30.2C114.3 27.4 113.2 24.7 111.2 22.7L101.9 13.3ZM109 35.7L107 38L96 27.3L29.8 93.5L44.3 108.9L36.3 118C34.9 119.4 32.9 120.2 30.9 120.2C28.9 120.2 26.9 119.4 25.5 118L6.7 99.2C3.7 96.2 3.7 91.4 6.6 88.4L89 15.5C90.4 14.1 92.4 13.3 94.4 13.3C96.4 13.3 98.4 14.1 99.8 15.5L109.1 24.8C110.5 26.2 111.3 28.2 111.3 30.2C111.3 32.3 110.5 34.2 109 35.7Z" stroke="white" strokeMiterlimit="10"/>
<path d="M38.5745 109.273L29.0993 118.748L30.2307 119.879L39.7059 110.404L38.5745 109.273Z" stroke="white" strokeMiterlimit="10"/>
<path d="M36.0315 106.86L26.555 116.334L27.6863 117.465L37.1627 107.992L36.0315 106.86Z" stroke="white" strokeMiterlimit="10"/>
<path d="M33.6966 104.414L24.2202 113.889L25.3515 115.021L34.828 105.546L33.6966 104.414Z" stroke="white" strokeMiterlimit="10"/>
<path d="M31.3127 101.974L21.8362 111.449L22.9676 112.58L32.4441 103.105L31.3127 101.974Z" stroke="white" strokeMiterlimit="10"/>
<path d="M28.7702 99.5001L19.287 108.967L20.4174 110.1L29.9006 100.632L28.7702 99.5001Z" stroke="white" strokeMiterlimit="10"/>
<path d="M26.3685 97.0728L16.8947 106.549L18.0262 107.68L27.5 98.204L26.3685 97.0728Z" stroke="white" strokeMiterlimit="10"/>
<path d="M23.8511 94.622L14.376 104.097L15.5074 105.228L24.9825 95.7534L23.8511 94.622Z" stroke="white" strokeMiterlimit="10"/>
<path d="M21.4538 92.2008L11.9786 101.676L13.11 102.807L22.5851 93.3321L21.4538 92.2008Z" stroke="white" strokeMiterlimit="10"/>
<path d="M18.9463 89.7348L9.47114 99.2099L10.6025 100.341L20.0776 90.8661L18.9463 89.7348Z" stroke="white" strokeMiterlimit="10"/>
<path d="M16.5484 87.3139L7.07324 96.789L8.20463 97.9204L17.6798 88.4452L16.5484 87.3139Z" stroke="white" strokeMiterlimit="10"/>
<path d="M14.2115 84.8692L4.7364 94.3457L5.86793 95.4771L15.3431 86.0006L14.2115 84.8692Z" stroke="white" strokeMiterlimit="10"/>
<path d="M122.9 7.79999L116.7 1.60001L102.3 13.4L111.1 22.2L122.9 7.79999ZM104.7 14.2L117.2 3.70001L117.6 4.20001L105.1 14.7L104.7 14.2ZM107.3 16.8L118.8 5.29999L119.2 5.70001L107.7 17.2L107.3 16.8ZM109.9 19.4L120.4 6.89999L120.9 7.29999L110.4 19.8L109.9 19.4Z" stroke="white" strokeMiterlimit="10"/>
<path d="M118.8 5.29999L107.3 16.8L107.7 17.3L119.2 5.70001L118.8 5.29999Z" stroke="white" strokeMiterlimit="10"/>
<path d="M120.369 6.96738L109.891 19.4532L110.351 19.8389L120.828 7.35307L120.369 6.96738Z" stroke="white" strokeMiterlimit="10"/>
<path d="M117.2 3.70001L104.7 14.2L105.1 14.7L117.6 4.20001L117.2 3.70001Z" stroke="white" strokeMiterlimit="10"/>
</svg>
