<svg width="68" height="101" viewBox="0 0 68 101" fill="none" xmlns="http://www.w3.org/2000/svg">
<path d="M20.6 100.2C20.3 100.2 19.9 100.1 19.6 99.9C19.2 99.6 10.7 92.5 8 82.7C6.4 76.9 7 69.7 7.6 62.6C8 57.8 8.3 53.3 8 49.6C7.8 47.3 6.6 43.6 5.2 39.5C1.3 27.6 -4 11.4 6.9 4.49998C10.9 1.99998 14.7 0.799988 18.5 0.799988C22.7 0.799988 26.1 2.29999 28.9 3.39999C30.9 4.19999 32.6 4.99998 34 4.99998C35.4 4.99998 37.1 4.29999 39.1 3.39999C41.9 2.19999 45.3 0.799988 49.5 0.799988C53.3 0.799988 57.1 1.99998 61.1 4.49998C72 11.4 66.7 27.7 62.8 39.5C61.4 43.7 60.3 47.3 60 49.6C59.7 53.3 60 57.8 60.4 62.6C61 69.6 61.5 76.9 60 82.7C57.4 92.4 48.8 99.6 48.4 99.9C47.9 100.3 47.2 100.4 46.7 100C46.2 99.7 45.9 99 46 98.4C46 98.2 49.3 80.7 45.2 69.5C41.8 60.2 36.1 55.3 33.9 55.3C31.8 55.3 26 60.2 22.6 69.5C18.5 80.7 21.8 98.2 21.8 98.4C21.9 99 21.6 99.6 21.1 100C21.1 100.1 20.8 100.2 20.6 100.2ZM34.1 52.3C38.1 52.3 44.6 58.5 48.2 68.5C51.3 77 50.5 88.3 49.8 94.5C52.4 91.7 55.8 87.1 57.3 81.9C58.7 76.6 58.2 69.6 57.6 62.9C57.2 58 56.8 53.4 57.2 49.4C57.4 46.7 58.7 43 60.1 38.6C63.7 27.7 68.6 12.7 59.6 6.99998C56.1 4.79998 52.9 3.69998 49.6 3.69998C46 3.69998 43 4.99998 40.4 6.09998C38.2 6.99998 36.1 7.89999 34.1 7.89999C32.1 7.89999 30 6.99998 27.8 6.09998C25.1 4.99998 22.1 3.69998 18.6 3.69998C15.3 3.69998 12.1 4.79998 8.6 6.99998C-0.400002 12.7 4.5 27.6 8.1 38.6C9.5 42.9 10.7 46.7 11 49.4C11.4 53.4 11 58 10.6 62.9C10.1 69.7 9.5 76.7 10.9 81.9C12.3 87.2 15.8 91.7 18.4 94.5C17.6 88.3 16.9 77 20 68.5C23.6 58.5 30.1 52.3 34.1 52.3Z" fill="white"/>
</svg>
