<?xml version="1.0" encoding="utf-8"?>
<!-- Generator: Adobe Illustrator 24.1.1, SVG Export Plug-In . SVG Version: 6.00 Build 0)  -->
<svg version="1.1" id="Capa_1" xmlns="http://www.w3.org/2000/svg" xmlns:xlink="http://www.w3.org/1999/xlink" x="0px" y="0px"
	 viewBox="0 0 70 70" style="enable-background:new 0 0 70 70;" xml:space="preserve">
<style type="text/css">
	.st0{fill:#FCFCFC;}
</style>
<g>
	<path class="st0" d="M49.2,6H24.2c-6.3,0-11.4,5.1-11.4,11.4v28.7c0,6.3,5.1,11.4,11.4,11.4h24.9c6.3,0,11.4-5.1,11.4-11.4V17.4
		C60.6,11.1,55.5,6,49.2,6z M22.2,49.3c-1.8,0-3.3-1.5-3.3-3.3c0-1.8,1.5-3.3,3.3-3.3c1.8,0,3.3,1.5,3.3,3.3
		C25.5,47.8,24,49.3,22.2,49.3z M34.6,29.1c0,1.6-1.3,2.8-2.8,2.8H20.6c-1.6,0-2.8-1.3-2.8-2.8V22c0-1.5,1.2-2.8,2.8-2.8h11.3
		c1.5,0,2.8,1.2,2.8,2.8V29.1z M33.4,11.8c0-1.8,1.5-3.3,3.3-3.3c1.8,0,3.3,1.5,3.3,3.3c0,1.8-1.5,3.3-3.3,3.3
		C34.9,15.1,33.4,13.6,33.4,11.8z M51.3,49.3c-1.8,0-3.3-1.5-3.3-3.3c0-1.8,1.5-3.3,3.3-3.3c1.8,0,3.3,1.5,3.3,3.3
		C54.6,47.8,53.1,49.3,51.3,49.3z M55.6,29.1c0,1.6-1.3,2.8-2.8,2.8H41.6c-1.6,0-2.8-1.3-2.8-2.8V22c0-1.5,1.2-2.8,2.8-2.8h11.3
		c1.5,0,2.8,1.2,2.8,2.8V29.1z"/>
	<rect x="26.2" y="61.6" class="st0" width="22" height="4.6"/>
</g>
</svg>
