<svg width="94" height="95" viewBox="0 0 94 95" fill="none" xmlns="http://www.w3.org/2000/svg">
<path d="M89.3 14.4C87.1 14.4 85.3 16.2 85.3 18.4C85.3 19.8 84.8 24.3 82.4 27C78.3 31.6 71.7 30.4 69.9 29.9C68.2 26 64.2 23.2 59.7 23.2C55 23.2 51 26.1 49.3 30.2C44.5 31.4 31.3 27.8 17.8 35.4C4.19999 43 -2.59999 69.3 2.60001 70.5C7.80001 71.7 16.2 62.1 20.6 54.9C25 47.7 37 41.3 48.2 38.5C48.6 38.4 49 38.3 49.3 38.2C50.9 42.4 55 45.5 59.8 45.5C64.7 45.5 68.8 42.4 70.3 38C71.4 38.2 72.7 38.3 74.1 38.3C78.5 38.3 84.2 37.1 88.5 32.2C93.3 26.7 93.4 19.1 93.4 18.3C93.3 16.1 91.5 14.3 89.3 14.4Z" stroke="white" stroke-miterlimit="10"/>
<path d="M62.7 34.4C62.7 36.1 61.4 37.4 59.7 37.4C58 37.4 56.7 36.1 56.7 34.4C56.7 32.7 58 31.4 59.7 31.4C61.3 31.4 62.7 32.8 62.7 34.4Z" stroke="white" stroke-miterlimit="10"/>
<path d="M59.7 21.5C61.1 21.5 62.5 21.8 63.8 22.2C63.5 19.4 63.7 15 67.1 12C70.3 9.2 75.7 9.10001 75.7 9.10001C77.9 9.10001 79.7 7.30001 79.7 5.10001C79.7 2.90001 77.9 1.10001 75.7 1.10001C74.6 1.10001 67.2 1.3 61.8 6C56.2 10.9 55.4 17.6 55.7 22.2C57 21.7 58.3 21.5 59.7 21.5Z" stroke="white" stroke-miterlimit="10"/>
<path d="M56.9 37.7C56.9 37.7 57 37.7 57.2 37.8C57.2 37.2 56.9 37.7 56.9 37.7Z" stroke="white" stroke-miterlimit="10"/>
<path d="M63.5 46.7C62.3 47.1 61 47.3 59.7 47.3C58.2 47.3 56.7 47 55.3 46.5C52.5 57.7 46.1 69.7 38.9 74.1C31.7 78.5 22.1 86.9 23.3 92.1C24.5 97.3 50.9 90.5 58.4 76.9C65.5 64.5 63 52.4 63.5 46.7Z" stroke="white" stroke-miterlimit="10"/>
</svg>
