<svg viewBox="0 0 360 126" fill="none" xmlns="http://www.w3.org/2000/svg">
<path fill-rule="evenodd" clip-rule="evenodd" d="M20.712 89.768C22.233 93.805 24.34 97.257 27.031 100.124C29.723 102.991 32.911 105.185 36.597 106.706C40.283 108.227 44.291 108.988 48.621 108.988C52.834 108.988 56.783 108.198 60.469 106.618C64.155 105.038 67.373 102.815 70.123 99.948C72.873 97.081 75.009 93.658 76.53 89.68C78.051 85.701 78.812 81.255 78.812 76.34V0.511993H97.242V123.38H78.987V111.971C74.891 116.3 70.064 119.635 64.506 121.976C58.947 124.316 52.951 125.486 46.515 125.486C39.962 125.486 33.848 124.345 28.172 122.063C22.497 119.781 17.582 116.534 13.428 112.321C9.27401 108.108 5.99701 103.048 3.59901 97.138C1.20001 91.229 0.00100708 84.647 0.00100708 77.391V0.511002H18.431V76.339C18.431 81.254 19.191 85.729 20.713 89.767L20.712 89.768ZM129.01 0.513V45.272C133.106 41.176 137.845 37.93 143.228 35.53C148.611 33.131 154.462 31.932 160.78 31.932C167.333 31.932 173.476 33.16 179.21 35.618C184.944 38.075 189.917 41.41 194.13 45.623C198.343 49.836 201.678 54.809 204.135 60.543C206.592 66.277 207.821 72.362 207.821 78.798C207.821 85.234 206.593 91.289 204.135 96.965C201.678 102.641 198.343 107.585 194.13 111.797C189.917 116.01 184.944 119.345 179.21 121.802C173.476 124.259 167.333 125.488 160.78 125.488C154.461 125.488 148.581 124.289 143.14 121.89C137.699 119.491 132.93 116.244 128.834 112.148V123.382H111.282V0.514008H129.01V0.513ZM131.028 90.909C132.608 94.654 134.802 97.93 137.61 100.739C140.418 103.547 143.695 105.771 147.439 107.409C151.184 109.047 155.221 109.866 159.551 109.866C163.764 109.866 167.742 109.047 171.487 107.409C175.231 105.771 178.478 103.548 181.229 100.739C183.979 97.931 186.173 94.654 187.811 90.909C189.449 87.165 190.268 83.128 190.268 78.798C190.268 74.468 189.449 70.402 187.811 66.599C186.173 62.796 183.979 59.49 181.229 56.682C178.479 53.874 175.232 51.68 171.487 50.1C167.742 48.52 163.764 47.73 159.551 47.73C155.339 47.73 151.36 48.52 147.615 50.1C143.871 51.68 140.594 53.874 137.785 56.682C134.977 59.49 132.753 62.796 131.115 66.599C129.477 70.402 128.658 74.469 128.658 78.798C128.658 83.128 129.448 87.165 131.027 90.909H131.028ZM217.825 60.719C220.165 55.102 223.384 50.158 227.479 45.887C231.574 41.616 236.431 38.252 242.048 35.794C247.665 33.337 253.75 32.108 260.303 32.108C266.739 32.108 272.707 33.278 278.207 35.618C283.707 37.958 288.446 41.206 292.424 45.36C296.403 49.514 299.504 54.429 301.727 60.104C303.951 65.78 305.062 71.952 305.062 78.622V84.414H232.219C232.804 88.042 233.975 91.406 235.73 94.506C237.486 97.607 239.679 100.298 242.312 102.58C244.945 104.862 247.929 106.647 251.264 107.934C254.599 109.221 258.138 109.865 261.883 109.865C272.532 109.865 281.133 105.477 287.686 96.7L300.499 106.178C296.052 112.146 290.553 116.827 284 120.22C277.447 123.613 270.075 125.31 261.884 125.31C255.214 125.31 248.983 124.139 243.19 121.799C237.398 119.459 232.366 116.182 228.095 111.969C223.824 107.756 220.46 102.812 218.002 97.137C215.545 91.462 214.316 85.289 214.316 78.619C214.315 72.3 215.486 66.332 217.826 60.715L217.825 60.719ZM242.487 53.785C237.514 57.939 234.208 63.468 232.57 70.372H287.159C285.638 63.468 282.39 57.939 277.417 53.785C272.444 49.631 266.622 47.554 259.952 47.554C253.282 47.554 247.46 49.631 242.487 53.785V53.785ZM338.235 55.804C334.491 59.9 332.618 65.458 332.618 72.479V123.382H314.89V33.863H332.442V44.921C334.666 41.293 337.562 38.426 341.131 36.32C344.7 34.213 348.942 33.16 353.857 33.16H360V49.66H352.628C346.777 49.66 341.98 51.708 338.235 55.804V55.804Z" fill="#FCFCFC"/>
</svg>
